solid ascii
  facet normal -0.000000e+000 -1.000000e+000 0.000000e+000
    outer loop
      vertex   3.200000e+001 -1.450000e+001 1.000000e+000
      vertex   3.200000e+001 -1.450000e+001 1.000000e+001
      vertex   2.750000e+001 -1.450000e+001 1.000000e+000
    endloop
  endfacet
  facet normal 0.000000e+000 -1.000000e+000 0.000000e+000
    outer loop
      vertex   2.750000e+001 -1.450000e+001 1.000000e+000
      vertex   3.200000e+001 -1.450000e+001 1.000000e+001
      vertex   2.750000e+001 -1.450000e+001 1.000000e+001
    endloop
  endfacet
  facet normal -2.337312e-015 2.767933e-030 1.000000e+000
    outer loop
      vertex   3.200000e+001 2.500000e+000 1.000000e+001
      vertex   3.200000e+001 1.450000e+001 1.000000e+001
      vertex   3.048000e+001 2.500000e+000 1.000000e+001
    endloop
  endfacet
  facet normal 0.000000e+000 -2.960595e-016 1.000000e+000
    outer loop
      vertex   3.048000e+001 2.500000e+000 1.000000e+001
      vertex   3.200000e+001 1.450000e+001 1.000000e+001
      vertex   2.750000e+001 1.450000e+001 1.000000e+001
    endloop
  endfacet
  facet normal 1.192186e-015 0.000000e+000 1.000000e+000
    outer loop
      vertex   2.750000e+001 -1.450000e+001 1.000000e+001
      vertex   3.048000e+001 2.500000e+000 1.000000e+001
      vertex   2.750000e+001 1.450000e+001 1.000000e+001
    endloop
  endfacet
  facet normal -2.861246e-015 7.105427e-016 1.000000e+000
    outer loop
      vertex   2.750000e+001 -1.450000e+001 1.000000e+001
      vertex   3.048000e+001 -2.500000e+000 1.000000e+001
      vertex   3.048000e+001 2.500000e+000 1.000000e+001
    endloop
  endfacet
  facet normal 0.000000e+000 -0.000000e+000 1.000000e+000
    outer loop
      vertex   2.750000e+001 -1.450000e+001 1.000000e+001
      vertex   3.200000e+001 -1.450000e+001 1.000000e+001
      vertex   3.048000e+001 -2.500000e+000 1.000000e+001
    endloop
  endfacet
  facet normal -0.000000e+000 -0.000000e+000 1.000000e+000
    outer loop
      vertex   3.048000e+001 -2.500000e+000 1.000000e+001
      vertex   3.200000e+001 -1.450000e+001 1.000000e+001
      vertex   3.200000e+001 -2.500000e+000 1.000000e+001
    endloop
  endfacet
  facet normal -1.000000e+000 0.000000e+000 0.000000e+000
    outer loop
      vertex   2.750000e+001 -1.450000e+001 1.000000e+000
      vertex   2.750000e+001 -1.450000e+001 1.000000e+001
      vertex   2.750000e+001 1.450000e+001 1.000000e+000
    endloop
  endfacet
  facet normal -1.000000e+000 0.000000e+000 0.000000e+000
    outer loop
      vertex   2.750000e+001 1.450000e+001 1.000000e+000
      vertex   2.750000e+001 -1.450000e+001 1.000000e+001
      vertex   2.750000e+001 1.450000e+001 1.000000e+001
    endloop
  endfacet
  facet normal -0.000000e+000 1.000000e+000 0.000000e+000
    outer loop
      vertex   2.750000e+001 1.450000e+001 1.000000e+000
      vertex   2.750000e+001 1.450000e+001 1.000000e+001
      vertex   3.200000e+001 1.450000e+001 1.000000e+000
    endloop
  endfacet
  facet normal 0.000000e+000 1.000000e+000 -0.000000e+000
    outer loop
      vertex   3.200000e+001 1.450000e+001 1.000000e+000
      vertex   2.750000e+001 1.450000e+001 1.000000e+001
      vertex   3.200000e+001 1.450000e+001 1.000000e+001
    endloop
  endfacet
  facet normal 0.000000e+000 0.000000e+000 1.000000e+000
    outer loop
      vertex   3.200000e+001 -1.450000e+001 1.000000e+000
      vertex   2.750000e+001 -1.450000e+001 1.000000e+000
      vertex   3.200000e+001 -4.800000e+001 1.000000e+000
    endloop
  endfacet
  facet normal 0.000000e+000 0.000000e+000 1.000000e+000
    outer loop
      vertex   3.200000e+001 -4.800000e+001 1.000000e+000
      vertex   2.750000e+001 -1.450000e+001 1.000000e+000
      vertex   1.800000e+001 -1.750000e+001 1.000000e+000
    endloop
  endfacet
  facet normal 0.000000e+000 -0.000000e+000 1.000000e+000
    outer loop
      vertex   1.450000e+001 -4.350000e+001 1.000000e+000
      vertex   1.800000e+001 -1.750000e+001 1.000000e+000
      vertex   1.700000e+001 -1.750000e+001 1.000000e+000
    endloop
  endfacet
  facet normal 0.000000e+000 -0.000000e+000 1.000000e+000
    outer loop
      vertex   8.000000e+000 -2.750000e+001 1.000000e+000
      vertex   1.700000e+001 -1.750000e+001 1.000000e+000
      vertex   8.000000e+000 -2.650000e+001 1.000000e+000
    endloop
  endfacet
  facet normal -0.000000e+000 0.000000e+000 1.000000e+000
    outer loop
      vertex   8.000000e+000 -2.750000e+001 1.000000e+000
      vertex   1.450000e+001 -4.350000e+001 1.000000e+000
      vertex   1.700000e+001 -1.750000e+001 1.000000e+000
    endloop
  endfacet
  facet normal 0.000000e+000 0.000000e+000 1.000000e+000
    outer loop
      vertex   8.000000e+000 -2.750000e+001 1.000000e+000
      vertex   8.881784e-015 -3.318889e+001 1.000000e+000
      vertex   1.450000e+001 -4.350000e+001 1.000000e+000
    endloop
  endfacet
  facet normal 0.000000e+000 0.000000e+000 1.000000e+000
    outer loop
      vertex   8.000000e+000 -2.750000e+001 1.000000e+000
      vertex   -8.000000e+000 -2.750000e+001 1.000000e+000
      vertex   8.881784e-015 -3.318889e+001 1.000000e+000
    endloop
  endfacet
  facet normal 0.000000e+000 0.000000e+000 1.000000e+000
    outer loop
      vertex   8.881784e-015 -3.318889e+001 1.000000e+000
      vertex   -8.000000e+000 -2.750000e+001 1.000000e+000
      vertex   -1.450000e+001 -4.350000e+001 1.000000e+000
    endloop
  endfacet
  facet normal 0.000000e+000 0.000000e+000 1.000000e+000
    outer loop
      vertex   1.450000e+001 -4.350000e+001 1.000000e+000
      vertex   8.881784e-015 -3.318889e+001 1.000000e+000
      vertex   -1.450000e+001 -4.350000e+001 1.000000e+000
    endloop
  endfacet
  facet normal 0.000000e+000 -0.000000e+000 1.000000e+000
    outer loop
      vertex   2.750000e+001 -1.450000e+001 1.000000e+000
      vertex   2.750000e+001 1.450000e+001 1.000000e+000
      vertex   1.800000e+001 -1.750000e+001 1.000000e+000
    endloop
  endfacet
  facet normal 0.000000e+000 -0.000000e+000 1.000000e+000
    outer loop
      vertex   1.800000e+001 -1.750000e+001 1.000000e+000
      vertex   2.750000e+001 1.450000e+001 1.000000e+000
      vertex   1.800000e+001 1.750000e+001 1.000000e+000
    endloop
  endfacet
  facet normal -0.000000e+000 0.000000e+000 1.000000e+000
    outer loop
      vertex   1.800000e+001 1.750000e+001 1.000000e+000
      vertex   2.750000e+001 1.450000e+001 1.000000e+000
      vertex   3.200000e+001 4.800000e+001 1.000000e+000
    endloop
  endfacet
  facet normal 0.000000e+000 -0.000000e+000 1.000000e+000
    outer loop
      vertex   1.450000e+001 4.350000e+001 1.000000e+000
      vertex   3.200000e+001 4.800000e+001 1.000000e+000
      vertex   1.450000e+001 4.800000e+001 1.000000e+000
    endloop
  endfacet
  facet normal -0.000000e+000 0.000000e+000 1.000000e+000
    outer loop
      vertex   1.450000e+001 4.350000e+001 1.000000e+000
      vertex   1.800000e+001 1.750000e+001 1.000000e+000
      vertex   3.200000e+001 4.800000e+001 1.000000e+000
    endloop
  endfacet
  facet normal -0.000000e+000 0.000000e+000 1.000000e+000
    outer loop
      vertex   1.450000e+001 4.350000e+001 1.000000e+000
      vertex   1.700000e+001 1.750000e+001 1.000000e+000
      vertex   1.800000e+001 1.750000e+001 1.000000e+000
    endloop
  endfacet
  facet normal 0.000000e+000 0.000000e+000 1.000000e+000
    outer loop
      vertex   1.450000e+001 4.350000e+001 1.000000e+000
      vertex   8.000000e+000 2.750000e+001 1.000000e+000
      vertex   1.700000e+001 1.750000e+001 1.000000e+000
    endloop
  endfacet
  facet normal 0.000000e+000 0.000000e+000 1.000000e+000
    outer loop
      vertex   1.450000e+001 4.350000e+001 1.000000e+000
      vertex   8.881784e-015 3.318889e+001 1.000000e+000
      vertex   8.000000e+000 2.750000e+001 1.000000e+000
    endloop
  endfacet
  facet normal 0.000000e+000 0.000000e+000 1.000000e+000
    outer loop
      vertex   1.450000e+001 4.350000e+001 1.000000e+000
      vertex   -1.450000e+001 4.350000e+001 1.000000e+000
      vertex   8.881784e-015 3.318889e+001 1.000000e+000
    endloop
  endfacet
  facet normal 0.000000e+000 0.000000e+000 1.000000e+000
    outer loop
      vertex   8.881784e-015 3.318889e+001 1.000000e+000
      vertex   -1.450000e+001 4.350000e+001 1.000000e+000
      vertex   -8.000000e+000 2.750000e+001 1.000000e+000
    endloop
  endfacet
  facet normal 0.000000e+000 0.000000e+000 1.000000e+000
    outer loop
      vertex   8.000000e+000 2.750000e+001 1.000000e+000
      vertex   8.881784e-015 3.318889e+001 1.000000e+000
      vertex   -8.000000e+000 2.750000e+001 1.000000e+000
    endloop
  endfacet
  facet normal 0.000000e+000 -0.000000e+000 1.000000e+000
    outer loop
      vertex   2.750000e+001 1.450000e+001 1.000000e+000
      vertex   3.200000e+001 1.450000e+001 1.000000e+000
      vertex   3.200000e+001 4.800000e+001 1.000000e+000
    endloop
  endfacet
  facet normal 0.000000e+000 0.000000e+000 1.000000e+000
    outer loop
      vertex   -1.450000e+001 4.800000e+001 1.000000e+000
      vertex   -3.200000e+001 4.800000e+001 1.000000e+000
      vertex   -1.450000e+001 4.350000e+001 1.000000e+000
    endloop
  endfacet
  facet normal 0.000000e+000 0.000000e+000 1.000000e+000
    outer loop
      vertex   -1.450000e+001 4.350000e+001 1.000000e+000
      vertex   -3.200000e+001 4.800000e+001 1.000000e+000
      vertex   -1.800000e+001 1.750000e+001 1.000000e+000
    endloop
  endfacet
  facet normal 0.000000e+000 -0.000000e+000 1.000000e+000
    outer loop
      vertex   -1.700000e+001 1.750000e+001 1.000000e+000
      vertex   -1.450000e+001 4.350000e+001 1.000000e+000
      vertex   -1.800000e+001 1.750000e+001 1.000000e+000
    endloop
  endfacet
  facet normal 0.000000e+000 -0.000000e+000 1.000000e+000
    outer loop
      vertex   -1.700000e+001 1.750000e+001 1.000000e+000
      vertex   -8.000000e+000 2.750000e+001 1.000000e+000
      vertex   -1.450000e+001 4.350000e+001 1.000000e+000
    endloop
  endfacet
  facet normal 0.000000e+000 0.000000e+000 1.000000e+000
    outer loop
      vertex   -1.700000e+001 1.750000e+001 1.000000e+000
      vertex   -8.000000e+000 2.650000e+001 1.000000e+000
      vertex   -8.000000e+000 2.750000e+001 1.000000e+000
    endloop
  endfacet
  facet normal -0.000000e+000 -0.000000e+000 1.000000e+000
    outer loop
      vertex   -1.700000e+001 1.750000e+001 1.000000e+000
      vertex   6.661338e-015 0.000000e+000 1.000000e+000
      vertex   -8.000000e+000 2.650000e+001 1.000000e+000
    endloop
  endfacet
  facet normal -0.000000e+000 0.000000e+000 1.000000e+000
    outer loop
      vertex   -1.700000e+001 1.750000e+001 1.000000e+000
      vertex   -1.700000e+001 -1.750000e+001 1.000000e+000
      vertex   6.661338e-015 0.000000e+000 1.000000e+000
    endloop
  endfacet
  facet normal -0.000000e+000 0.000000e+000 1.000000e+000
    outer loop
      vertex   6.661338e-015 0.000000e+000 1.000000e+000
      vertex   -1.700000e+001 -1.750000e+001 1.000000e+000
      vertex   8.881784e-015 -1.750000e+001 1.000000e+000
    endloop
  endfacet
  facet normal 0.000000e+000 0.000000e+000 1.000000e+000
    outer loop
      vertex   1.700000e+001 -1.750000e+001 1.000000e+000
      vertex   8.881784e-015 -1.750000e+001 1.000000e+000
      vertex   8.000000e+000 -2.650000e+001 1.000000e+000
    endloop
  endfacet
  facet normal 0.000000e+000 0.000000e+000 1.000000e+000
    outer loop
      vertex   1.700000e+001 -1.750000e+001 1.000000e+000
      vertex   6.661338e-015 0.000000e+000 1.000000e+000
      vertex   8.881784e-015 -1.750000e+001 1.000000e+000
    endloop
  endfacet
  facet normal 0.000000e+000 -0.000000e+000 1.000000e+000
    outer loop
      vertex   1.700000e+001 -1.750000e+001 1.000000e+000
      vertex   1.700000e+001 1.750000e+001 1.000000e+000
      vertex   6.661338e-015 0.000000e+000 1.000000e+000
    endloop
  endfacet
  facet normal 0.000000e+000 -0.000000e+000 1.000000e+000
    outer loop
      vertex   6.661338e-015 0.000000e+000 1.000000e+000
      vertex   1.700000e+001 1.750000e+001 1.000000e+000
      vertex   8.000000e+000 2.650000e+001 1.000000e+000
    endloop
  endfacet
  facet normal -0.000000e+000 0.000000e+000 1.000000e+000
    outer loop
      vertex   -8.000000e+000 2.650000e+001 1.000000e+000
      vertex   6.661338e-015 0.000000e+000 1.000000e+000
      vertex   8.000000e+000 2.650000e+001 1.000000e+000
    endloop
  endfacet
  facet normal 0.000000e+000 -0.000000e+000 1.000000e+000
    outer loop
      vertex   -3.200000e+001 1.450000e+001 1.000000e+000
      vertex   -2.750000e+001 1.450000e+001 1.000000e+000
      vertex   -3.200000e+001 4.800000e+001 1.000000e+000
    endloop
  endfacet
  facet normal -0.000000e+000 0.000000e+000 1.000000e+000
    outer loop
      vertex   -3.200000e+001 4.800000e+001 1.000000e+000
      vertex   -2.750000e+001 1.450000e+001 1.000000e+000
      vertex   -1.800000e+001 1.750000e+001 1.000000e+000
    endloop
  endfacet
  facet normal 0.000000e+000 0.000000e+000 1.000000e+000
    outer loop
      vertex   -1.800000e+001 1.750000e+001 1.000000e+000
      vertex   -2.750000e+001 1.450000e+001 1.000000e+000
      vertex   -2.750000e+001 -1.450000e+001 1.000000e+000
    endloop
  endfacet
  facet normal 0.000000e+000 0.000000e+000 1.000000e+000
    outer loop
      vertex   -1.800000e+001 -1.750000e+001 1.000000e+000
      vertex   -2.750000e+001 -1.450000e+001 1.000000e+000
      vertex   -3.200000e+001 -4.800000e+001 1.000000e+000
    endloop
  endfacet
  facet normal -0.000000e+000 0.000000e+000 1.000000e+000
    outer loop
      vertex   -1.450000e+001 -4.350000e+001 1.000000e+000
      vertex   -3.200000e+001 -4.800000e+001 1.000000e+000
      vertex   -1.450000e+001 -4.800000e+001 1.000000e+000
    endloop
  endfacet
  facet normal 0.000000e+000 0.000000e+000 1.000000e+000
    outer loop
      vertex   -1.450000e+001 -4.350000e+001 1.000000e+000
      vertex   -1.800000e+001 -1.750000e+001 1.000000e+000
      vertex   -3.200000e+001 -4.800000e+001 1.000000e+000
    endloop
  endfacet
  facet normal 0.000000e+000 0.000000e+000 1.000000e+000
    outer loop
      vertex   -1.450000e+001 -4.350000e+001 1.000000e+000
      vertex   -1.700000e+001 -1.750000e+001 1.000000e+000
      vertex   -1.800000e+001 -1.750000e+001 1.000000e+000
    endloop
  endfacet
  facet normal 0.000000e+000 -0.000000e+000 1.000000e+000
    outer loop
      vertex   -1.450000e+001 -4.350000e+001 1.000000e+000
      vertex   -8.000000e+000 -2.750000e+001 1.000000e+000
      vertex   -1.700000e+001 -1.750000e+001 1.000000e+000
    endloop
  endfacet
  facet normal -0.000000e+000 0.000000e+000 1.000000e+000
    outer loop
      vertex   -1.700000e+001 -1.750000e+001 1.000000e+000
      vertex   -8.000000e+000 -2.750000e+001 1.000000e+000
      vertex   -8.000000e+000 -2.650000e+001 1.000000e+000
    endloop
  endfacet
  facet normal -0.000000e+000 0.000000e+000 1.000000e+000
    outer loop
      vertex   8.881784e-015 -1.750000e+001 1.000000e+000
      vertex   -8.000000e+000 -2.650000e+001 1.000000e+000
      vertex   8.881784e-015 -2.373077e+001 1.000000e+000
    endloop
  endfacet
  facet normal 0.000000e+000 0.000000e+000 1.000000e+000
    outer loop
      vertex   8.000000e+000 -2.650000e+001 1.000000e+000
      vertex   8.881784e-015 -2.373077e+001 1.000000e+000
      vertex   -8.000000e+000 -2.650000e+001 1.000000e+000
    endloop
  endfacet
  facet normal 0.000000e+000 0.000000e+000 1.000000e+000
    outer loop
      vertex   8.000000e+000 -2.650000e+001 1.000000e+000
      vertex   8.881784e-015 -1.750000e+001 1.000000e+000
      vertex   8.881784e-015 -2.373077e+001 1.000000e+000
    endloop
  endfacet
  facet normal 0.000000e+000 0.000000e+000 1.000000e+000
    outer loop
      vertex   -2.750000e+001 -1.450000e+001 1.000000e+000
      vertex   -3.200000e+001 -1.450000e+001 1.000000e+000
      vertex   -3.200000e+001 -4.800000e+001 1.000000e+000
    endloop
  endfacet
  facet normal -0.000000e+000 -0.000000e+000 1.000000e+000
    outer loop
      vertex   1.450000e+001 -4.800000e+001 1.000000e+000
      vertex   3.200000e+001 -4.800000e+001 1.000000e+000
      vertex   1.450000e+001 -4.350000e+001 1.000000e+000
    endloop
  endfacet
  facet normal -0.000000e+000 -0.000000e+000 1.000000e+000
    outer loop
      vertex   1.450000e+001 -4.350000e+001 1.000000e+000
      vertex   3.200000e+001 -4.800000e+001 1.000000e+000
      vertex   1.800000e+001 -1.750000e+001 1.000000e+000
    endloop
  endfacet
  facet normal 0.000000e+000 0.000000e+000 1.000000e+000
    outer loop
      vertex   8.000000e+000 2.750000e+001 1.000000e+000
      vertex   8.000000e+000 2.650000e+001 1.000000e+000
      vertex   1.700000e+001 1.750000e+001 1.000000e+000
    endloop
  endfacet
  facet normal 0.000000e+000 -0.000000e+000 1.000000e+000
    outer loop
      vertex   -1.800000e+001 -1.750000e+001 1.000000e+000
      vertex   -1.800000e+001 1.750000e+001 1.000000e+000
      vertex   -2.750000e+001 -1.450000e+001 1.000000e+000
    endloop
  endfacet
  facet normal -0.000000e+000 0.000000e+000 1.000000e+000
    outer loop
      vertex   -1.700000e+001 -1.750000e+001 1.000000e+000
      vertex   -8.000000e+000 -2.650000e+001 1.000000e+000
      vertex   8.881784e-015 -1.750000e+001 1.000000e+000
    endloop
  endfacet
  facet normal 0.000000e+000 -0.000000e+000 -1.000000e+000
    outer loop
      vertex   -3.552714e-015 4.800000e+001 0.000000e+000
      vertex   3.200000e+001 4.800000e+001 0.000000e+000
      vertex   -8.881784e-015 0.000000e+000 0.000000e+000
    endloop
  endfacet
  facet normal 0.000000e+000 -0.000000e+000 -1.000000e+000
    outer loop
      vertex   -3.200000e+001 0.000000e+000 0.000000e+000
      vertex   -8.881784e-015 0.000000e+000 0.000000e+000
      vertex   -3.200000e+001 -4.800000e+001 0.000000e+000
    endloop
  endfacet
  facet normal 0.000000e+000 -0.000000e+000 -1.000000e+000
    outer loop
      vertex   -3.200000e+001 0.000000e+000 0.000000e+000
      vertex   -3.552714e-015 4.800000e+001 0.000000e+000
      vertex   -8.881784e-015 0.000000e+000 0.000000e+000
    endloop
  endfacet
  facet normal 0.000000e+000 0.000000e+000 -1.000000e+000
    outer loop
      vertex   -3.200000e+001 0.000000e+000 0.000000e+000
      vertex   -3.200000e+001 4.800000e+001 0.000000e+000
      vertex   -3.552714e-015 4.800000e+001 0.000000e+000
    endloop
  endfacet
  facet normal 0.000000e+000 0.000000e+000 -1.000000e+000
    outer loop
      vertex   3.200000e+001 -4.800000e+001 0.000000e+000
      vertex   0.000000e+000 -4.800000e+001 0.000000e+000
      vertex   3.200000e+001 0.000000e+000 0.000000e+000
    endloop
  endfacet
  facet normal -0.000000e+000 0.000000e+000 -1.000000e+000
    outer loop
      vertex   3.200000e+001 0.000000e+000 0.000000e+000
      vertex   0.000000e+000 -4.800000e+001 0.000000e+000
      vertex   -8.881784e-015 0.000000e+000 0.000000e+000
    endloop
  endfacet
  facet normal -0.000000e+000 -0.000000e+000 -1.000000e+000
    outer loop
      vertex   3.200000e+001 4.800000e+001 0.000000e+000
      vertex   3.200000e+001 0.000000e+000 0.000000e+000
      vertex   -8.881784e-015 0.000000e+000 0.000000e+000
    endloop
  endfacet
  facet normal -0.000000e+000 0.000000e+000 -1.000000e+000
    outer loop
      vertex   0.000000e+000 -4.800000e+001 0.000000e+000
      vertex   -3.200000e+001 -4.800000e+001 0.000000e+000
      vertex   -8.881784e-015 0.000000e+000 0.000000e+000
    endloop
  endfacet
  facet normal -0.000000e+000 1.000000e+000 0.000000e+000
    outer loop
      vertex   -3.200000e+001 1.450000e+001 1.000000e+000
      vertex   -3.200000e+001 1.450000e+001 1.000000e+001
      vertex   -2.750000e+001 1.450000e+001 1.000000e+000
    endloop
  endfacet
  facet normal 0.000000e+000 1.000000e+000 -0.000000e+000
    outer loop
      vertex   -2.750000e+001 1.450000e+001 1.000000e+000
      vertex   -3.200000e+001 1.450000e+001 1.000000e+001
      vertex   -2.750000e+001 1.450000e+001 1.000000e+001
    endloop
  endfacet
  facet normal 5.960929e-016 -0.000000e+000 1.000000e+000
    outer loop
      vertex   -2.750000e+001 -1.450000e+001 1.000000e+001
      vertex   -2.750000e+001 1.450000e+001 1.000000e+001
      vertex   -3.048000e+001 2.500000e+000 1.000000e+001
    endloop
  endfacet
  facet normal -1.430623e-015 -3.552714e-016 1.000000e+000
    outer loop
      vertex   -3.048000e+001 -2.500000e+000 1.000000e+001
      vertex   -2.750000e+001 -1.450000e+001 1.000000e+001
      vertex   -3.048000e+001 2.500000e+000 1.000000e+001
    endloop
  endfacet
  facet normal -0.000000e+000 0.000000e+000 1.000000e+000
    outer loop
      vertex   -3.048000e+001 -2.500000e+000 1.000000e+001
      vertex   -3.200000e+001 -1.450000e+001 1.000000e+001
      vertex   -2.750000e+001 -1.450000e+001 1.000000e+001
    endloop
  endfacet
  facet normal 1.176395e-015 -1.490101e-016 1.000000e+000
    outer loop
      vertex   -3.048000e+001 -2.500000e+000 1.000000e+001
      vertex   -3.199000e+001 -2.500000e+000 1.000000e+001
      vertex   -3.200000e+001 -1.450000e+001 1.000000e+001
    endloop
  endfacet
  facet normal -1.776357e-013 0.000000e+000 1.000000e+000
    outer loop
      vertex   -3.200000e+001 -1.450000e+001 1.000000e+001
      vertex   -3.199000e+001 -2.500000e+000 1.000000e+001
      vertex   -3.199000e+001 2.500000e+000 1.000000e+001
    endloop
  endfacet
  facet normal -0.000000e+000 1.480297e-016 1.000000e+000
    outer loop
      vertex   -3.200000e+001 1.450000e+001 1.000000e+001
      vertex   -3.199000e+001 2.500000e+000 1.000000e+001
      vertex   -3.048000e+001 2.500000e+000 1.000000e+001
    endloop
  endfacet
  facet normal 0.000000e+000 1.480297e-016 1.000000e+000
    outer loop
      vertex   -2.750000e+001 1.450000e+001 1.000000e+001
      vertex   -3.200000e+001 1.450000e+001 1.000000e+001
      vertex   -3.048000e+001 2.500000e+000 1.000000e+001
    endloop
  endfacet
  facet normal -1.776357e-013 0.000000e+000 1.000000e+000
    outer loop
      vertex   -3.200000e+001 1.450000e+001 1.000000e+001
      vertex   -3.200000e+001 -1.450000e+001 1.000000e+001
      vertex   -3.199000e+001 2.500000e+000 1.000000e+001
    endloop
  endfacet
  facet normal 1.000000e+000 0.000000e+000 -0.000000e+000
    outer loop
      vertex   -2.750000e+001 1.450000e+001 1.000000e+000
      vertex   -2.750000e+001 1.450000e+001 1.000000e+001
      vertex   -2.750000e+001 -1.450000e+001 1.000000e+000
    endloop
  endfacet
  facet normal 1.000000e+000 0.000000e+000 -0.000000e+000
    outer loop
      vertex   -2.750000e+001 -1.450000e+001 1.000000e+000
      vertex   -2.750000e+001 1.450000e+001 1.000000e+001
      vertex   -2.750000e+001 -1.450000e+001 1.000000e+001
    endloop
  endfacet
  facet normal -0.000000e+000 -1.000000e+000 0.000000e+000
    outer loop
      vertex   -2.750000e+001 -1.450000e+001 1.000000e+000
      vertex   -2.750000e+001 -1.450000e+001 1.000000e+001
      vertex   -3.200000e+001 -1.450000e+001 1.000000e+000
    endloop
  endfacet
  facet normal 0.000000e+000 -1.000000e+000 0.000000e+000
    outer loop
      vertex   -3.200000e+001 -1.450000e+001 1.000000e+000
      vertex   -2.750000e+001 -1.450000e+001 1.000000e+001
      vertex   -3.200000e+001 -1.450000e+001 1.000000e+001
    endloop
  endfacet
  facet normal -0.000000e+000 -1.000000e+000 -0.000000e+000
    outer loop
      vertex   2.500000e+000 4.635500e+001 1.200000e+001
      vertex   -2.500000e+000 4.635500e+001 1.200000e+001
      vertex   2.500000e+000 4.635500e+001 1.000000e+001
    endloop
  endfacet
  facet normal -0.000000e+000 -1.000000e+000 -0.000000e+000
    outer loop
      vertex   2.500000e+000 4.635500e+001 1.000000e+001
      vertex   -2.500000e+000 4.635500e+001 1.200000e+001
      vertex   -2.500000e+000 4.635500e+001 1.000000e+001
    endloop
  endfacet
  facet normal 0.000000e+000 0.000000e+000 -1.000000e+000
    outer loop
      vertex   2.500000e+000 4.500000e+001 1.200000e+001
      vertex   -2.500000e+000 4.500000e+001 1.200000e+001
      vertex   2.500000e+000 4.635500e+001 1.200000e+001
    endloop
  endfacet
  facet normal -0.000000e+000 0.000000e+000 -1.000000e+000
    outer loop
      vertex   2.500000e+000 4.635500e+001 1.200000e+001
      vertex   -2.500000e+000 4.500000e+001 1.200000e+001
      vertex   -2.500000e+000 4.635500e+001 1.200000e+001
    endloop
  endfacet
  facet normal 1.000000e+000 -6.554822e-016 0.000000e+000
    outer loop
      vertex   2.500000e+000 4.500000e+001 1.200000e+001
      vertex   2.500000e+000 4.635500e+001 1.200000e+001
      vertex   2.500000e+000 4.500000e+001 1.250000e+001
    endloop
  endfacet
  facet normal 1.000000e+000 -4.788024e-016 4.788024e-016
    outer loop
      vertex   2.500000e+000 4.500000e+001 1.250000e+001
      vertex   2.500000e+000 4.635500e+001 1.200000e+001
      vertex   2.500000e+000 4.650000e+001 1.400000e+001
    endloop
  endfacet
  facet normal 1.000000e+000 0.000000e+000 4.440892e-016
    outer loop
      vertex   2.500000e+000 4.650000e+001 1.400000e+001
      vertex   2.500000e+000 4.635500e+001 1.200000e+001
      vertex   2.500000e+000 4.800000e+001 1.400000e+001
    endloop
  endfacet
  facet normal 1.000000e+000 5.399261e-016 0.000000e+000
    outer loop
      vertex   2.500000e+000 4.800000e+001 1.400000e+001
      vertex   2.500000e+000 4.635500e+001 1.200000e+001
      vertex   2.500000e+000 4.800000e+001 1.000000e+001
    endloop
  endfacet
  facet normal 1.000000e+000 0.000000e+000 -4.440892e-016
    outer loop
      vertex   2.500000e+000 4.800000e+001 1.000000e+001
      vertex   2.500000e+000 4.635500e+001 1.200000e+001
      vertex   2.500000e+000 4.635500e+001 1.000000e+001
    endloop
  endfacet
  facet normal 0.000000e+000 -7.071068e-001 7.071068e-001
    outer loop
      vertex   -2.500000e+000 4.500000e+001 1.250000e+001
      vertex   2.500000e+000 4.500000e+001 1.250000e+001
      vertex   -2.500000e+000 4.650000e+001 1.400000e+001
    endloop
  endfacet
  facet normal 0.000000e+000 -7.071068e-001 7.071068e-001
    outer loop
      vertex   -2.500000e+000 4.650000e+001 1.400000e+001
      vertex   2.500000e+000 4.500000e+001 1.250000e+001
      vertex   2.500000e+000 4.650000e+001 1.400000e+001
    endloop
  endfacet
  facet normal -1.000000e+000 3.932893e-015 0.000000e+000
    outer loop
      vertex   -2.500000e+000 4.500000e+001 1.200000e+001
      vertex   -2.500000e+000 4.500000e+001 1.250000e+001
      vertex   -2.500000e+000 4.635500e+001 1.200000e+001
    endloop
  endfacet
  facet normal -1.000000e+000 3.670818e-015 -7.102235e-016
    outer loop
      vertex   -2.500000e+000 4.635500e+001 1.200000e+001
      vertex   -2.500000e+000 4.500000e+001 1.250000e+001
      vertex   -2.500000e+000 4.650000e+001 1.400000e+001
    endloop
  endfacet
  facet normal -1.000000e+000 5.921189e-015 -8.733754e-016
    outer loop
      vertex   -2.500000e+000 4.800000e+001 1.400000e+001
      vertex   -2.500000e+000 4.635500e+001 1.200000e+001
      vertex   -2.500000e+000 4.650000e+001 1.400000e+001
    endloop
  endfacet
  facet normal -1.000000e+000 4.859335e-015 0.000000e+000
    outer loop
      vertex   -2.500000e+000 4.800000e+001 1.400000e+001
      vertex   -2.500000e+000 4.800000e+001 1.000000e+001
      vertex   -2.500000e+000 4.635500e+001 1.200000e+001
    endloop
  endfacet
  facet normal -1.000000e+000 4.859335e-015 0.000000e+000
    outer loop
      vertex   -2.500000e+000 4.635500e+001 1.200000e+001
      vertex   -2.500000e+000 4.800000e+001 1.000000e+001
      vertex   -2.500000e+000 4.635500e+001 1.000000e+001
    endloop
  endfacet
  facet normal 0.000000e+000 -0.000000e+000 1.000000e+000
    outer loop
      vertex   -2.500000e+000 4.650000e+001 1.400000e+001
      vertex   2.500000e+000 4.650000e+001 1.400000e+001
      vertex   -2.500000e+000 4.800000e+001 1.400000e+001
    endloop
  endfacet
  facet normal -0.000000e+000 0.000000e+000 1.000000e+000
    outer loop
      vertex   -2.500000e+000 4.800000e+001 1.400000e+001
      vertex   2.500000e+000 4.650000e+001 1.400000e+001
      vertex   2.500000e+000 4.800000e+001 1.400000e+001
    endloop
  endfacet
  facet normal -0.000000e+000 -1.000000e+000 0.000000e+000
    outer loop
      vertex   2.500000e+000 4.500000e+001 1.200000e+001
      vertex   2.500000e+000 4.500000e+001 1.250000e+001
      vertex   -2.500000e+000 4.500000e+001 1.200000e+001
    endloop
  endfacet
  facet normal 0.000000e+000 -1.000000e+000 0.000000e+000
    outer loop
      vertex   -2.500000e+000 4.500000e+001 1.200000e+001
      vertex   2.500000e+000 4.500000e+001 1.250000e+001
      vertex   -2.500000e+000 4.500000e+001 1.250000e+001
    endloop
  endfacet
  facet normal -0.000000e+000 1.000000e+000 0.000000e+000
    outer loop
      vertex   -2.500000e+000 -4.635500e+001 1.200000e+001
      vertex   2.500000e+000 -4.635500e+001 1.200000e+001
      vertex   -2.500000e+000 -4.635500e+001 1.000000e+001
    endloop
  endfacet
  facet normal -0.000000e+000 1.000000e+000 0.000000e+000
    outer loop
      vertex   -2.500000e+000 -4.635500e+001 1.000000e+001
      vertex   2.500000e+000 -4.635500e+001 1.200000e+001
      vertex   2.500000e+000 -4.635500e+001 1.000000e+001
    endloop
  endfacet
  facet normal 0.000000e+000 -0.000000e+000 -1.000000e+000
    outer loop
      vertex   -2.500000e+000 -4.500000e+001 1.200000e+001
      vertex   2.500000e+000 -4.500000e+001 1.200000e+001
      vertex   -2.500000e+000 -4.635500e+001 1.200000e+001
    endloop
  endfacet
  facet normal 0.000000e+000 -0.000000e+000 -1.000000e+000
    outer loop
      vertex   -2.500000e+000 -4.635500e+001 1.200000e+001
      vertex   2.500000e+000 -4.500000e+001 1.200000e+001
      vertex   2.500000e+000 -4.635500e+001 1.200000e+001
    endloop
  endfacet
  facet normal -1.000000e+000 1.310964e-015 0.000000e+000
    outer loop
      vertex   -2.500000e+000 -4.500000e+001 1.200000e+001
      vertex   -2.500000e+000 -4.635500e+001 1.200000e+001
      vertex   -2.500000e+000 -4.500000e+001 1.250000e+001
    endloop
  endfacet
  facet normal -1.000000e+000 9.576048e-016 9.576048e-016
    outer loop
      vertex   -2.500000e+000 -4.500000e+001 1.250000e+001
      vertex   -2.500000e+000 -4.635500e+001 1.200000e+001
      vertex   -2.500000e+000 -4.650000e+001 1.400000e+001
    endloop
  endfacet
  facet normal -1.000000e+000 0.000000e+000 8.881784e-016
    outer loop
      vertex   -2.500000e+000 -4.650000e+001 1.400000e+001
      vertex   -2.500000e+000 -4.635500e+001 1.200000e+001
      vertex   -2.500000e+000 -4.800000e+001 1.400000e+001
    endloop
  endfacet
  facet normal -1.000000e+000 -1.079852e-015 0.000000e+000
    outer loop
      vertex   -2.500000e+000 -4.800000e+001 1.400000e+001
      vertex   -2.500000e+000 -4.635500e+001 1.200000e+001
      vertex   -2.500000e+000 -4.800000e+001 1.000000e+001
    endloop
  endfacet
  facet normal -1.000000e+000 0.000000e+000 -8.881784e-016
    outer loop
      vertex   -2.500000e+000 -4.800000e+001 1.000000e+001
      vertex   -2.500000e+000 -4.635500e+001 1.200000e+001
      vertex   -2.500000e+000 -4.635500e+001 1.000000e+001
    endloop
  endfacet
  facet normal 0.000000e+000 7.071068e-001 7.071068e-001
    outer loop
      vertex   2.500000e+000 -4.500000e+001 1.250000e+001
      vertex   -2.500000e+000 -4.500000e+001 1.250000e+001
      vertex   2.500000e+000 -4.650000e+001 1.400000e+001
    endloop
  endfacet
  facet normal 0.000000e+000 7.071068e-001 7.071068e-001
    outer loop
      vertex   2.500000e+000 -4.650000e+001 1.400000e+001
      vertex   -2.500000e+000 -4.500000e+001 1.250000e+001
      vertex   -2.500000e+000 -4.650000e+001 1.400000e+001
    endloop
  endfacet
  facet normal 1.000000e+000 -1.310964e-015 0.000000e+000
    outer loop
      vertex   2.500000e+000 -4.500000e+001 1.200000e+001
      vertex   2.500000e+000 -4.500000e+001 1.250000e+001
      vertex   2.500000e+000 -4.635500e+001 1.200000e+001
    endloop
  endfacet
  facet normal 1.000000e+000 -9.576048e-016 -9.576048e-016
    outer loop
      vertex   2.500000e+000 -4.635500e+001 1.200000e+001
      vertex   2.500000e+000 -4.500000e+001 1.250000e+001
      vertex   2.500000e+000 -4.650000e+001 1.400000e+001
    endloop
  endfacet
  facet normal 1.000000e+000 0.000000e+000 -8.881784e-016
    outer loop
      vertex   2.500000e+000 -4.800000e+001 1.400000e+001
      vertex   2.500000e+000 -4.635500e+001 1.200000e+001
      vertex   2.500000e+000 -4.650000e+001 1.400000e+001
    endloop
  endfacet
  facet normal 1.000000e+000 1.079852e-015 0.000000e+000
    outer loop
      vertex   2.500000e+000 -4.800000e+001 1.400000e+001
      vertex   2.500000e+000 -4.800000e+001 1.000000e+001
      vertex   2.500000e+000 -4.635500e+001 1.200000e+001
    endloop
  endfacet
  facet normal 1.000000e+000 1.079852e-015 0.000000e+000
    outer loop
      vertex   2.500000e+000 -4.635500e+001 1.200000e+001
      vertex   2.500000e+000 -4.800000e+001 1.000000e+001
      vertex   2.500000e+000 -4.635500e+001 1.000000e+001
    endloop
  endfacet
  facet normal 0.000000e+000 0.000000e+000 1.000000e+000
    outer loop
      vertex   2.500000e+000 -4.650000e+001 1.400000e+001
      vertex   -2.500000e+000 -4.650000e+001 1.400000e+001
      vertex   2.500000e+000 -4.800000e+001 1.400000e+001
    endloop
  endfacet
  facet normal 0.000000e+000 0.000000e+000 1.000000e+000
    outer loop
      vertex   2.500000e+000 -4.800000e+001 1.400000e+001
      vertex   -2.500000e+000 -4.650000e+001 1.400000e+001
      vertex   -2.500000e+000 -4.800000e+001 1.400000e+001
    endloop
  endfacet
  facet normal -0.000000e+000 1.000000e+000 0.000000e+000
    outer loop
      vertex   -2.500000e+000 -4.500000e+001 1.200000e+001
      vertex   -2.500000e+000 -4.500000e+001 1.250000e+001
      vertex   2.500000e+000 -4.500000e+001 1.200000e+001
    endloop
  endfacet
  facet normal 0.000000e+000 1.000000e+000 -0.000000e+000
    outer loop
      vertex   2.500000e+000 -4.500000e+001 1.200000e+001
      vertex   -2.500000e+000 -4.500000e+001 1.250000e+001
      vertex   2.500000e+000 -4.500000e+001 1.250000e+001
    endloop
  endfacet
  facet normal -1.000000e+000 -2.121023e-016 -0.000000e+000
    outer loop
      vertex   -3.200000e+001 4.800000e+001 1.000000e+000
      vertex   -3.200000e+001 4.800000e+001 0.000000e+000
      vertex   -3.200000e+001 1.450000e+001 1.000000e+000
    endloop
  endfacet
  facet normal -1.000000e+000 0.000000e+000 7.105427e-015
    outer loop
      vertex   -3.200000e+001 1.450000e+001 1.000000e+000
      vertex   -3.200000e+001 4.800000e+001 0.000000e+000
      vertex   -3.200000e+001 0.000000e+000 0.000000e+000
    endloop
  endfacet
  facet normal -1.000000e+000 -4.900295e-016 0.000000e+000
    outer loop
      vertex   -3.200000e+001 -1.450000e+001 1.000000e+001
      vertex   -3.200000e+001 0.000000e+000 0.000000e+000
      vertex   -3.200000e+001 -1.450000e+001 1.000000e+000
    endloop
  endfacet
  facet normal -1.000000e+000 4.009332e-016 1.291896e-015
    outer loop
      vertex   -3.200000e+001 -1.450000e+001 1.000000e+001
      vertex   -3.200000e+001 1.450000e+001 1.000000e+000
      vertex   -3.200000e+001 0.000000e+000 0.000000e+000
    endloop
  endfacet
  facet normal -1.000000e+000 0.000000e+000 0.000000e+000
    outer loop
      vertex   -3.200000e+001 -1.450000e+001 1.000000e+001
      vertex   -3.200000e+001 1.450000e+001 1.000000e+001
      vertex   -3.200000e+001 1.450000e+001 1.000000e+000
    endloop
  endfacet
  facet normal -1.000000e+000 0.000000e+000 7.105427e-015
    outer loop
      vertex   -3.200000e+001 0.000000e+000 0.000000e+000
      vertex   -3.200000e+001 -4.800000e+001 0.000000e+000
      vertex   -3.200000e+001 -1.450000e+001 1.000000e+000
    endloop
  endfacet
  facet normal -1.000000e+000 2.121023e-016 0.000000e+000
    outer loop
      vertex   -3.200000e+001 -1.450000e+001 1.000000e+000
      vertex   -3.200000e+001 -4.800000e+001 0.000000e+000
      vertex   -3.200000e+001 -4.800000e+001 1.000000e+000
    endloop
  endfacet
  facet normal 1.000000e+000 -5.302558e-016 0.000000e+000
    outer loop
      vertex   3.200000e+001 -4.800000e+001 1.000000e+000
      vertex   3.200000e+001 -4.800000e+001 0.000000e+000
      vertex   3.200000e+001 -1.450000e+001 1.000000e+000
    endloop
  endfacet
  facet normal 1.000000e+000 0.000000e+000 -1.776357e-014
    outer loop
      vertex   3.200000e+001 -1.450000e+001 1.000000e+000
      vertex   3.200000e+001 -4.800000e+001 0.000000e+000
      vertex   3.200000e+001 0.000000e+000 0.000000e+000
    endloop
  endfacet
  facet normal 1.000000e+000 0.000000e+000 -3.552714e-016
    outer loop
      vertex   3.200000e+001 -2.500000e+000 1.000000e+001
      vertex   3.200000e+001 0.000000e+000 0.000000e+000
      vertex   3.200000e+001 2.500000e+000 1.000000e+001
    endloop
  endfacet
  facet normal 1.000000e+000 -0.000000e+000 0.000000e+000
    outer loop
      vertex   3.200000e+001 -2.500000e+000 1.400000e+001
      vertex   3.200000e+001 2.500000e+000 1.000000e+001
      vertex   3.200000e+001 2.500000e+000 1.400000e+001
    endloop
  endfacet
  facet normal 1.000000e+000 -0.000000e+000 0.000000e+000
    outer loop
      vertex   3.200000e+001 -2.500000e+000 1.400000e+001
      vertex   3.200000e+001 -2.500000e+000 1.000000e+001
      vertex   3.200000e+001 2.500000e+000 1.000000e+001
    endloop
  endfacet
  facet normal 1.000000e+000 -1.221635e-015 -4.986265e-017
    outer loop
      vertex   3.200000e+001 2.500000e+000 1.000000e+001
      vertex   3.200000e+001 0.000000e+000 0.000000e+000
      vertex   3.200000e+001 1.450000e+001 1.000000e+000
    endloop
  endfacet
  facet normal 1.000000e+000 -1.184238e-015 0.000000e+000
    outer loop
      vertex   3.200000e+001 1.450000e+001 1.000000e+001
      vertex   3.200000e+001 2.500000e+000 1.000000e+001
      vertex   3.200000e+001 1.450000e+001 1.000000e+000
    endloop
  endfacet
  facet normal 1.000000e+000 5.302558e-016 0.000000e+000
    outer loop
      vertex   3.200000e+001 4.800000e+001 1.000000e+000
      vertex   3.200000e+001 1.450000e+001 1.000000e+000
      vertex   3.200000e+001 4.800000e+001 0.000000e+000
    endloop
  endfacet
  facet normal 1.000000e+000 0.000000e+000 -1.776357e-014
    outer loop
      vertex   3.200000e+001 4.800000e+001 0.000000e+000
      vertex   3.200000e+001 1.450000e+001 1.000000e+000
      vertex   3.200000e+001 0.000000e+000 0.000000e+000
    endloop
  endfacet
  facet normal 1.000000e+000 1.184238e-015 0.000000e+000
    outer loop
      vertex   3.200000e+001 -1.450000e+001 1.000000e+001
      vertex   3.200000e+001 -1.450000e+001 1.000000e+000
      vertex   3.200000e+001 -2.500000e+000 1.000000e+001
    endloop
  endfacet
  facet normal 1.000000e+000 1.221635e-015 -4.986265e-017
    outer loop
      vertex   3.200000e+001 -2.500000e+000 1.000000e+001
      vertex   3.200000e+001 -1.450000e+001 1.000000e+000
      vertex   3.200000e+001 0.000000e+000 0.000000e+000
    endloop
  endfacet
  facet normal -0.000000e+000 1.000000e+000 0.000000e+000
    outer loop
      vertex   -8.000000e+000 2.750000e+001 1.000000e+000
      vertex   -8.000000e+000 2.750000e+001 6.000000e+000
      vertex   8.000000e+000 2.750000e+001 1.000000e+000
    endloop
  endfacet
  facet normal 0.000000e+000 1.000000e+000 -0.000000e+000
    outer loop
      vertex   8.000000e+000 2.750000e+001 1.000000e+000
      vertex   -8.000000e+000 2.750000e+001 6.000000e+000
      vertex   8.000000e+000 2.750000e+001 6.000000e+000
    endloop
  endfacet
  facet normal -1.000000e+000 0.000000e+000 0.000000e+000
    outer loop
      vertex   -8.000000e+000 2.650000e+001 1.000000e+000
      vertex   -8.000000e+000 2.650000e+001 6.000000e+000
      vertex   -8.000000e+000 2.750000e+001 1.000000e+000
    endloop
  endfacet
  facet normal -1.000000e+000 0.000000e+000 0.000000e+000
    outer loop
      vertex   -8.000000e+000 2.750000e+001 1.000000e+000
      vertex   -8.000000e+000 2.650000e+001 6.000000e+000
      vertex   -8.000000e+000 2.750000e+001 6.000000e+000
    endloop
  endfacet
  facet normal -0.000000e+000 -1.000000e+000 0.000000e+000
    outer loop
      vertex   8.000000e+000 2.650000e+001 1.000000e+000
      vertex   8.000000e+000 2.650000e+001 6.000000e+000
      vertex   -8.000000e+000 2.650000e+001 1.000000e+000
    endloop
  endfacet
  facet normal 0.000000e+000 -1.000000e+000 0.000000e+000
    outer loop
      vertex   -8.000000e+000 2.650000e+001 1.000000e+000
      vertex   8.000000e+000 2.650000e+001 6.000000e+000
      vertex   -8.000000e+000 2.650000e+001 6.000000e+000
    endloop
  endfacet
  facet normal 0.000000e+000 0.000000e+000 1.000000e+000
    outer loop
      vertex   8.000000e+000 2.750000e+001 6.000000e+000
      vertex   -8.000000e+000 2.750000e+001 6.000000e+000
      vertex   8.000000e+000 2.650000e+001 6.000000e+000
    endloop
  endfacet
  facet normal 0.000000e+000 0.000000e+000 1.000000e+000
    outer loop
      vertex   8.000000e+000 2.650000e+001 6.000000e+000
      vertex   -8.000000e+000 2.750000e+001 6.000000e+000
      vertex   -8.000000e+000 2.650000e+001 6.000000e+000
    endloop
  endfacet
  facet normal 1.000000e+000 0.000000e+000 -0.000000e+000
    outer loop
      vertex   8.000000e+000 2.750000e+001 1.000000e+000
      vertex   8.000000e+000 2.750000e+001 6.000000e+000
      vertex   8.000000e+000 2.650000e+001 1.000000e+000
    endloop
  endfacet
  facet normal 1.000000e+000 0.000000e+000 -0.000000e+000
    outer loop
      vertex   8.000000e+000 2.650000e+001 1.000000e+000
      vertex   8.000000e+000 2.750000e+001 6.000000e+000
      vertex   8.000000e+000 2.650000e+001 6.000000e+000
    endloop
  endfacet
  facet normal -1.000000e+000 0.000000e+000 0.000000e+000
    outer loop
      vertex   -8.000000e+000 -2.750000e+001 1.000000e+000
      vertex   -8.000000e+000 -2.750000e+001 6.000000e+000
      vertex   -8.000000e+000 -2.650000e+001 1.000000e+000
    endloop
  endfacet
  facet normal -1.000000e+000 0.000000e+000 0.000000e+000
    outer loop
      vertex   -8.000000e+000 -2.650000e+001 1.000000e+000
      vertex   -8.000000e+000 -2.750000e+001 6.000000e+000
      vertex   -8.000000e+000 -2.650000e+001 6.000000e+000
    endloop
  endfacet
  facet normal -0.000000e+000 -1.000000e+000 0.000000e+000
    outer loop
      vertex   8.000000e+000 -2.750000e+001 1.000000e+000
      vertex   8.000000e+000 -2.750000e+001 6.000000e+000
      vertex   -8.000000e+000 -2.750000e+001 1.000000e+000
    endloop
  endfacet
  facet normal 0.000000e+000 -1.000000e+000 0.000000e+000
    outer loop
      vertex   -8.000000e+000 -2.750000e+001 1.000000e+000
      vertex   8.000000e+000 -2.750000e+001 6.000000e+000
      vertex   -8.000000e+000 -2.750000e+001 6.000000e+000
    endloop
  endfacet
  facet normal 1.000000e+000 0.000000e+000 -0.000000e+000
    outer loop
      vertex   8.000000e+000 -2.650000e+001 1.000000e+000
      vertex   8.000000e+000 -2.650000e+001 6.000000e+000
      vertex   8.000000e+000 -2.750000e+001 1.000000e+000
    endloop
  endfacet
  facet normal 1.000000e+000 0.000000e+000 -0.000000e+000
    outer loop
      vertex   8.000000e+000 -2.750000e+001 1.000000e+000
      vertex   8.000000e+000 -2.650000e+001 6.000000e+000
      vertex   8.000000e+000 -2.750000e+001 6.000000e+000
    endloop
  endfacet
  facet normal 0.000000e+000 0.000000e+000 1.000000e+000
    outer loop
      vertex   8.000000e+000 -2.650000e+001 6.000000e+000
      vertex   -8.000000e+000 -2.650000e+001 6.000000e+000
      vertex   8.000000e+000 -2.750000e+001 6.000000e+000
    endloop
  endfacet
  facet normal 0.000000e+000 0.000000e+000 1.000000e+000
    outer loop
      vertex   8.000000e+000 -2.750000e+001 6.000000e+000
      vertex   -8.000000e+000 -2.650000e+001 6.000000e+000
      vertex   -8.000000e+000 -2.750000e+001 6.000000e+000
    endloop
  endfacet
  facet normal -0.000000e+000 1.000000e+000 0.000000e+000
    outer loop
      vertex   -8.000000e+000 -2.650000e+001 1.000000e+000
      vertex   -8.000000e+000 -2.650000e+001 6.000000e+000
      vertex   8.000000e+000 -2.650000e+001 1.000000e+000
    endloop
  endfacet
  facet normal 0.000000e+000 1.000000e+000 -0.000000e+000
    outer loop
      vertex   8.000000e+000 -2.650000e+001 1.000000e+000
      vertex   -8.000000e+000 -2.650000e+001 6.000000e+000
      vertex   8.000000e+000 -2.650000e+001 6.000000e+000
    endloop
  endfacet
  facet normal -1.000000e+000 -2.368476e-015 -1.973730e-016
    outer loop
      vertex   -1.450000e+001 -4.800000e+001 1.000000e+000
      vertex   -1.450000e+001 -4.800000e+001 1.000000e+001
      vertex   -1.450000e+001 -4.350000e+001 1.000000e+000
    endloop
  endfacet
  facet normal -1.000000e+000 -1.973730e-015 0.000000e+000
    outer loop
      vertex   -1.450000e+001 -4.350000e+001 1.000000e+000
      vertex   -1.450000e+001 -4.800000e+001 1.000000e+001
      vertex   -1.450000e+001 -4.350000e+001 1.000000e+001
    endloop
  endfacet
  facet normal 0.000000e+000 -1.000000e+000 1.578984e-015
    outer loop
      vertex   1.450000e+001 -4.800000e+001 1.000000e+001
      vertex   2.500000e+000 -4.800000e+001 1.000000e+001
      vertex   1.450000e+001 -4.800000e+001 1.000000e+000
    endloop
  endfacet
  facet normal -9.972530e-017 -1.000000e+000 1.446017e-015
    outer loop
      vertex   1.450000e+001 -4.800000e+001 1.000000e+000
      vertex   2.500000e+000 -4.800000e+001 1.000000e+001
      vertex   0.000000e+000 -4.800000e+001 0.000000e+000
    endloop
  endfacet
  facet normal -2.220446e-016 -1.000000e+000 3.219647e-015
    outer loop
      vertex   3.200000e+001 -4.800000e+001 0.000000e+000
      vertex   1.450000e+001 -4.800000e+001 1.000000e+000
      vertex   0.000000e+000 -4.800000e+001 0.000000e+000
    endloop
  endfacet
  facet normal -4.060244e-016 -1.000000e+000 0.000000e+000
    outer loop
      vertex   3.200000e+001 -4.800000e+001 0.000000e+000
      vertex   3.200000e+001 -4.800000e+001 1.000000e+000
      vertex   1.450000e+001 -4.800000e+001 1.000000e+000
    endloop
  endfacet
  facet normal -0.000000e+000 -1.000000e+000 -0.000000e+000
    outer loop
      vertex   2.500000e+000 -4.800000e+001 1.400000e+001
      vertex   -2.500000e+000 -4.800000e+001 1.400000e+001
      vertex   2.500000e+000 -4.800000e+001 1.000000e+001
    endloop
  endfacet
  facet normal -0.000000e+000 -1.000000e+000 -0.000000e+000
    outer loop
      vertex   2.500000e+000 -4.800000e+001 1.000000e+001
      vertex   -2.500000e+000 -4.800000e+001 1.400000e+001
      vertex   -2.500000e+000 -4.800000e+001 1.000000e+001
    endloop
  endfacet
  facet normal 9.972530e-017 -1.000000e+000 1.446017e-015
    outer loop
      vertex   0.000000e+000 -4.800000e+001 0.000000e+000
      vertex   -2.500000e+000 -4.800000e+001 1.000000e+001
      vertex   -1.450000e+001 -4.800000e+001 1.000000e+000
    endloop
  endfacet
  facet normal 4.060244e-016 -1.000000e+000 0.000000e+000
    outer loop
      vertex   -3.200000e+001 -4.800000e+001 0.000000e+000
      vertex   -1.450000e+001 -4.800000e+001 1.000000e+000
      vertex   -3.200000e+001 -4.800000e+001 1.000000e+000
    endloop
  endfacet
  facet normal 2.220446e-016 -1.000000e+000 3.219647e-015
    outer loop
      vertex   -3.200000e+001 -4.800000e+001 0.000000e+000
      vertex   0.000000e+000 -4.800000e+001 0.000000e+000
      vertex   -1.450000e+001 -4.800000e+001 1.000000e+000
    endloop
  endfacet
  facet normal 1.184238e-015 -1.000000e+000 2.337366e-031
    outer loop
      vertex   -2.500000e+000 -4.800000e+001 1.000000e+001
      vertex   -1.450000e+001 -4.800000e+001 1.000000e+001
      vertex   -1.450000e+001 -4.800000e+001 1.000000e+000
    endloop
  endfacet
  facet normal 0.000000e+000 -1.000000e+000 1.421085e-015
    outer loop
      vertex   2.500000e+000 -4.800000e+001 1.000000e+001
      vertex   -2.500000e+000 -4.800000e+001 1.000000e+001
      vertex   0.000000e+000 -4.800000e+001 0.000000e+000
    endloop
  endfacet
  facet normal 0.000000e+000 -0.000000e+000 1.000000e+000
    outer loop
      vertex   2.500000e+000 -4.800000e+001 1.000000e+001
      vertex   1.450000e+001 -4.800000e+001 1.000000e+001
      vertex   2.500000e+000 -4.635500e+001 1.000000e+001
    endloop
  endfacet
  facet normal -0.000000e+000 0.000000e+000 1.000000e+000
    outer loop
      vertex   2.500000e+000 -4.635500e+001 1.000000e+001
      vertex   1.450000e+001 -4.800000e+001 1.000000e+001
      vertex   1.450000e+001 -4.350000e+001 1.000000e+001
    endloop
  endfacet
  facet normal -0.000000e+000 0.000000e+000 1.000000e+000
    outer loop
      vertex   -1.450000e+001 -4.350000e+001 1.000000e+001
      vertex   2.500000e+000 -4.635500e+001 1.000000e+001
      vertex   1.450000e+001 -4.350000e+001 1.000000e+001
    endloop
  endfacet
  facet normal -0.000000e+000 0.000000e+000 1.000000e+000
    outer loop
      vertex   -1.450000e+001 -4.350000e+001 1.000000e+001
      vertex   -2.500000e+000 -4.635500e+001 1.000000e+001
      vertex   2.500000e+000 -4.635500e+001 1.000000e+001
    endloop
  endfacet
  facet normal -0.000000e+000 0.000000e+000 1.000000e+000
    outer loop
      vertex   -1.450000e+001 -4.350000e+001 1.000000e+001
      vertex   -1.450000e+001 -4.800000e+001 1.000000e+001
      vertex   -2.500000e+000 -4.635500e+001 1.000000e+001
    endloop
  endfacet
  facet normal -0.000000e+000 0.000000e+000 1.000000e+000
    outer loop
      vertex   -2.500000e+000 -4.635500e+001 1.000000e+001
      vertex   -1.450000e+001 -4.800000e+001 1.000000e+001
      vertex   -2.500000e+000 -4.800000e+001 1.000000e+001
    endloop
  endfacet
  facet normal -4.900295e-016 1.000000e+000 0.000000e+000
    outer loop
      vertex   -1.450000e+001 -4.350000e+001 1.000000e+000
      vertex   -1.450000e+001 -4.350000e+001 1.000000e+001
      vertex   1.450000e+001 -4.350000e+001 1.000000e+000
    endloop
  endfacet
  facet normal -4.900295e-016 1.000000e+000 0.000000e+000
    outer loop
      vertex   1.450000e+001 -4.350000e+001 1.000000e+000
      vertex   -1.450000e+001 -4.350000e+001 1.000000e+001
      vertex   1.450000e+001 -4.350000e+001 1.000000e+001
    endloop
  endfacet
  facet normal 1.000000e+000 0.000000e+000 -0.000000e+000
    outer loop
      vertex   1.450000e+001 -4.350000e+001 1.000000e+000
      vertex   1.450000e+001 -4.350000e+001 1.000000e+001
      vertex   1.450000e+001 -4.800000e+001 1.000000e+000
    endloop
  endfacet
  facet normal 1.000000e+000 0.000000e+000 -0.000000e+000
    outer loop
      vertex   1.450000e+001 -4.800000e+001 1.000000e+000
      vertex   1.450000e+001 -4.350000e+001 1.000000e+001
      vertex   1.450000e+001 -4.800000e+001 1.000000e+001
    endloop
  endfacet
  facet normal 1.000000e+000 0.000000e+000 -0.000000e+000
    outer loop
      vertex   1.450000e+001 4.800000e+001 1.000000e+000
      vertex   1.450000e+001 4.800000e+001 1.000000e+001
      vertex   1.450000e+001 4.350000e+001 1.000000e+000
    endloop
  endfacet
  facet normal 1.000000e+000 0.000000e+000 -0.000000e+000
    outer loop
      vertex   1.450000e+001 4.350000e+001 1.000000e+000
      vertex   1.450000e+001 4.800000e+001 1.000000e+001
      vertex   1.450000e+001 4.350000e+001 1.000000e+001
    endloop
  endfacet
  facet normal 0.000000e+000 1.000000e+000 -7.894919e-016
    outer loop
      vertex   -1.450000e+001 4.800000e+001 1.000000e+001
      vertex   -2.500000e+000 4.800000e+001 1.000000e+001
      vertex   -1.450000e+001 4.800000e+001 1.000000e+000
    endloop
  endfacet
  facet normal -4.986265e-017 1.000000e+000 -7.230084e-016
    outer loop
      vertex   -1.450000e+001 4.800000e+001 1.000000e+000
      vertex   -2.500000e+000 4.800000e+001 1.000000e+001
      vertex   -3.552714e-015 4.800000e+001 0.000000e+000
    endloop
  endfacet
  facet normal -0.000000e+000 1.000000e+000 0.000000e+000
    outer loop
      vertex   -3.200000e+001 4.800000e+001 0.000000e+000
      vertex   -1.450000e+001 4.800000e+001 1.000000e+000
      vertex   -3.552714e-015 4.800000e+001 0.000000e+000
    endloop
  endfacet
  facet normal 0.000000e+000 1.000000e+000 0.000000e+000
    outer loop
      vertex   -3.200000e+001 4.800000e+001 0.000000e+000
      vertex   -3.200000e+001 4.800000e+001 1.000000e+000
      vertex   -1.450000e+001 4.800000e+001 1.000000e+000
    endloop
  endfacet
  facet normal -0.000000e+000 1.000000e+000 0.000000e+000
    outer loop
      vertex   -2.500000e+000 4.800000e+001 1.400000e+001
      vertex   2.500000e+000 4.800000e+001 1.400000e+001
      vertex   -2.500000e+000 4.800000e+001 1.000000e+001
    endloop
  endfacet
  facet normal -0.000000e+000 1.000000e+000 0.000000e+000
    outer loop
      vertex   -2.500000e+000 4.800000e+001 1.000000e+001
      vertex   2.500000e+000 4.800000e+001 1.400000e+001
      vertex   2.500000e+000 4.800000e+001 1.000000e+001
    endloop
  endfacet
  facet normal 4.986265e-017 1.000000e+000 -7.230084e-016
    outer loop
      vertex   -3.552714e-015 4.800000e+001 0.000000e+000
      vertex   2.500000e+000 4.800000e+001 1.000000e+001
      vertex   1.450000e+001 4.800000e+001 1.000000e+000
    endloop
  endfacet
  facet normal 0.000000e+000 1.000000e+000 -0.000000e+000
    outer loop
      vertex   3.200000e+001 4.800000e+001 0.000000e+000
      vertex   1.450000e+001 4.800000e+001 1.000000e+000
      vertex   3.200000e+001 4.800000e+001 1.000000e+000
    endloop
  endfacet
  facet normal 0.000000e+000 1.000000e+000 -0.000000e+000
    outer loop
      vertex   3.200000e+001 4.800000e+001 0.000000e+000
      vertex   -3.552714e-015 4.800000e+001 0.000000e+000
      vertex   1.450000e+001 4.800000e+001 1.000000e+000
    endloop
  endfacet
  facet normal -5.921189e-016 1.000000e+000 -1.578984e-015
    outer loop
      vertex   2.500000e+000 4.800000e+001 1.000000e+001
      vertex   1.450000e+001 4.800000e+001 1.000000e+001
      vertex   1.450000e+001 4.800000e+001 1.000000e+000
    endloop
  endfacet
  facet normal 0.000000e+000 1.000000e+000 -7.105427e-016
    outer loop
      vertex   -2.500000e+000 4.800000e+001 1.000000e+001
      vertex   2.500000e+000 4.800000e+001 1.000000e+001
      vertex   -3.552714e-015 4.800000e+001 0.000000e+000
    endloop
  endfacet
  facet normal 0.000000e+000 0.000000e+000 1.000000e+000
    outer loop
      vertex   -2.500000e+000 4.800000e+001 1.000000e+001
      vertex   -1.450000e+001 4.800000e+001 1.000000e+001
      vertex   -2.500000e+000 4.635500e+001 1.000000e+001
    endloop
  endfacet
  facet normal 0.000000e+000 0.000000e+000 1.000000e+000
    outer loop
      vertex   -2.500000e+000 4.635500e+001 1.000000e+001
      vertex   -1.450000e+001 4.800000e+001 1.000000e+001
      vertex   -1.450000e+001 4.350000e+001 1.000000e+001
    endloop
  endfacet
  facet normal -0.000000e+000 0.000000e+000 1.000000e+000
    outer loop
      vertex   2.500000e+000 4.635500e+001 1.000000e+001
      vertex   -1.450000e+001 4.350000e+001 1.000000e+001
      vertex   1.450000e+001 4.350000e+001 1.000000e+001
    endloop
  endfacet
  facet normal 0.000000e+000 0.000000e+000 1.000000e+000
    outer loop
      vertex   1.450000e+001 4.800000e+001 1.000000e+001
      vertex   2.500000e+000 4.635500e+001 1.000000e+001
      vertex   1.450000e+001 4.350000e+001 1.000000e+001
    endloop
  endfacet
  facet normal 0.000000e+000 0.000000e+000 1.000000e+000
    outer loop
      vertex   1.450000e+001 4.800000e+001 1.000000e+001
      vertex   2.500000e+000 4.800000e+001 1.000000e+001
      vertex   2.500000e+000 4.635500e+001 1.000000e+001
    endloop
  endfacet
  facet normal -0.000000e+000 0.000000e+000 1.000000e+000
    outer loop
      vertex   -2.500000e+000 4.635500e+001 1.000000e+001
      vertex   -1.450000e+001 4.350000e+001 1.000000e+001
      vertex   2.500000e+000 4.635500e+001 1.000000e+001
    endloop
  endfacet
  facet normal -1.000000e+000 0.000000e+000 0.000000e+000
    outer loop
      vertex   -1.450000e+001 4.350000e+001 1.000000e+000
      vertex   -1.450000e+001 4.350000e+001 1.000000e+001
      vertex   -1.450000e+001 4.800000e+001 1.000000e+000
    endloop
  endfacet
  facet normal -1.000000e+000 -1.973730e-015 -9.868649e-016
    outer loop
      vertex   -1.450000e+001 4.800000e+001 1.000000e+000
      vertex   -1.450000e+001 4.350000e+001 1.000000e+001
      vertex   -1.450000e+001 4.800000e+001 1.000000e+001
    endloop
  endfacet
  facet normal 2.450147e-016 -1.000000e+000 0.000000e+000
    outer loop
      vertex   1.450000e+001 4.350000e+001 1.000000e+000
      vertex   1.450000e+001 4.350000e+001 1.000000e+001
      vertex   -1.450000e+001 4.350000e+001 1.000000e+000
    endloop
  endfacet
  facet normal 2.450147e-016 -1.000000e+000 0.000000e+000
    outer loop
      vertex   -1.450000e+001 4.350000e+001 1.000000e+000
      vertex   1.450000e+001 4.350000e+001 1.000000e+001
      vertex   -1.450000e+001 4.350000e+001 1.000000e+001
    endloop
  endfacet
  facet normal -0.000000e+000 1.000000e+000 0.000000e+000
    outer loop
      vertex   -1.800000e+001 1.750000e+001 1.000000e+000
      vertex   -1.800000e+001 1.750000e+001 6.000000e+000
      vertex   -1.700000e+001 1.750000e+001 1.000000e+000
    endloop
  endfacet
  facet normal 0.000000e+000 1.000000e+000 -0.000000e+000
    outer loop
      vertex   -1.700000e+001 1.750000e+001 1.000000e+000
      vertex   -1.800000e+001 1.750000e+001 6.000000e+000
      vertex   -1.700000e+001 1.750000e+001 6.000000e+000
    endloop
  endfacet
  facet normal -1.000000e+000 0.000000e+000 0.000000e+000
    outer loop
      vertex   -1.800000e+001 -1.750000e+001 1.000000e+000
      vertex   -1.800000e+001 -1.750000e+001 6.000000e+000
      vertex   -1.800000e+001 1.750000e+001 1.000000e+000
    endloop
  endfacet
  facet normal -1.000000e+000 0.000000e+000 0.000000e+000
    outer loop
      vertex   -1.800000e+001 1.750000e+001 1.000000e+000
      vertex   -1.800000e+001 -1.750000e+001 6.000000e+000
      vertex   -1.800000e+001 1.750000e+001 6.000000e+000
    endloop
  endfacet
  facet normal -0.000000e+000 -1.000000e+000 0.000000e+000
    outer loop
      vertex   -1.700000e+001 -1.750000e+001 1.000000e+000
      vertex   -1.700000e+001 -1.750000e+001 6.000000e+000
      vertex   -1.800000e+001 -1.750000e+001 1.000000e+000
    endloop
  endfacet
  facet normal 0.000000e+000 -1.000000e+000 0.000000e+000
    outer loop
      vertex   -1.800000e+001 -1.750000e+001 1.000000e+000
      vertex   -1.700000e+001 -1.750000e+001 6.000000e+000
      vertex   -1.800000e+001 -1.750000e+001 6.000000e+000
    endloop
  endfacet
  facet normal 1.000000e+000 0.000000e+000 -0.000000e+000
    outer loop
      vertex   -1.700000e+001 1.750000e+001 1.000000e+000
      vertex   -1.700000e+001 1.750000e+001 6.000000e+000
      vertex   -1.700000e+001 -1.750000e+001 1.000000e+000
    endloop
  endfacet
  facet normal 1.000000e+000 0.000000e+000 -0.000000e+000
    outer loop
      vertex   -1.700000e+001 -1.750000e+001 1.000000e+000
      vertex   -1.700000e+001 1.750000e+001 6.000000e+000
      vertex   -1.700000e+001 -1.750000e+001 6.000000e+000
    endloop
  endfacet
  facet normal 0.000000e+000 -0.000000e+000 1.000000e+000
    outer loop
      vertex   -1.700000e+001 -1.750000e+001 6.000000e+000
      vertex   -1.700000e+001 1.750000e+001 6.000000e+000
      vertex   -1.800000e+001 -1.750000e+001 6.000000e+000
    endloop
  endfacet
  facet normal 0.000000e+000 -0.000000e+000 1.000000e+000
    outer loop
      vertex   -1.800000e+001 -1.750000e+001 6.000000e+000
      vertex   -1.700000e+001 1.750000e+001 6.000000e+000
      vertex   -1.800000e+001 1.750000e+001 6.000000e+000
    endloop
  endfacet
  facet normal -0.000000e+000 -1.000000e+000 0.000000e+000
    outer loop
      vertex   1.800000e+001 -1.750000e+001 1.000000e+000
      vertex   1.800000e+001 -1.750000e+001 6.000000e+000
      vertex   1.700000e+001 -1.750000e+001 1.000000e+000
    endloop
  endfacet
  facet normal 0.000000e+000 -1.000000e+000 0.000000e+000
    outer loop
      vertex   1.700000e+001 -1.750000e+001 1.000000e+000
      vertex   1.800000e+001 -1.750000e+001 6.000000e+000
      vertex   1.700000e+001 -1.750000e+001 6.000000e+000
    endloop
  endfacet
  facet normal 1.000000e+000 0.000000e+000 -0.000000e+000
    outer loop
      vertex   1.800000e+001 1.750000e+001 1.000000e+000
      vertex   1.800000e+001 1.750000e+001 6.000000e+000
      vertex   1.800000e+001 -1.750000e+001 1.000000e+000
    endloop
  endfacet
  facet normal 1.000000e+000 0.000000e+000 -0.000000e+000
    outer loop
      vertex   1.800000e+001 -1.750000e+001 1.000000e+000
      vertex   1.800000e+001 1.750000e+001 6.000000e+000
      vertex   1.800000e+001 -1.750000e+001 6.000000e+000
    endloop
  endfacet
  facet normal -0.000000e+000 1.000000e+000 0.000000e+000
    outer loop
      vertex   1.700000e+001 1.750000e+001 1.000000e+000
      vertex   1.700000e+001 1.750000e+001 6.000000e+000
      vertex   1.800000e+001 1.750000e+001 1.000000e+000
    endloop
  endfacet
  facet normal 0.000000e+000 1.000000e+000 -0.000000e+000
    outer loop
      vertex   1.800000e+001 1.750000e+001 1.000000e+000
      vertex   1.700000e+001 1.750000e+001 6.000000e+000
      vertex   1.800000e+001 1.750000e+001 6.000000e+000
    endloop
  endfacet
  facet normal -0.000000e+000 0.000000e+000 1.000000e+000
    outer loop
      vertex   1.700000e+001 1.750000e+001 6.000000e+000
      vertex   1.700000e+001 -1.750000e+001 6.000000e+000
      vertex   1.800000e+001 1.750000e+001 6.000000e+000
    endloop
  endfacet
  facet normal -0.000000e+000 0.000000e+000 1.000000e+000
    outer loop
      vertex   1.800000e+001 1.750000e+001 6.000000e+000
      vertex   1.700000e+001 -1.750000e+001 6.000000e+000
      vertex   1.800000e+001 -1.750000e+001 6.000000e+000
    endloop
  endfacet
  facet normal -1.000000e+000 0.000000e+000 0.000000e+000
    outer loop
      vertex   1.700000e+001 -1.750000e+001 1.000000e+000
      vertex   1.700000e+001 -1.750000e+001 6.000000e+000
      vertex   1.700000e+001 1.750000e+001 1.000000e+000
    endloop
  endfacet
  facet normal -1.000000e+000 0.000000e+000 0.000000e+000
    outer loop
      vertex   1.700000e+001 1.750000e+001 1.000000e+000
      vertex   1.700000e+001 -1.750000e+001 6.000000e+000
      vertex   1.700000e+001 1.750000e+001 6.000000e+000
    endloop
  endfacet
  facet normal 1.000000e+000 0.000000e+000 0.000000e+000
    outer loop
      vertex   -3.048000e+001 2.500000e+000 1.200000e+001
      vertex   -3.048000e+001 -2.500000e+000 1.200000e+001
      vertex   -3.048000e+001 2.500000e+000 1.000000e+001
    endloop
  endfacet
  facet normal 1.000000e+000 0.000000e+000 0.000000e+000
    outer loop
      vertex   -3.048000e+001 2.500000e+000 1.000000e+001
      vertex   -3.048000e+001 -2.500000e+000 1.200000e+001
      vertex   -3.048000e+001 -2.500000e+000 1.000000e+001
    endloop
  endfacet
  facet normal 0.000000e+000 -0.000000e+000 -1.000000e+000
    outer loop
      vertex   -3.048000e+001 2.500000e+000 1.200000e+001
      vertex   -2.899000e+001 2.500000e+000 1.200000e+001
      vertex   -3.048000e+001 -2.500000e+000 1.200000e+001
    endloop
  endfacet
  facet normal 0.000000e+000 0.000000e+000 -1.000000e+000
    outer loop
      vertex   -3.048000e+001 -2.500000e+000 1.200000e+001
      vertex   -2.899000e+001 2.500000e+000 1.200000e+001
      vertex   -2.899000e+001 -2.500000e+000 1.200000e+001
    endloop
  endfacet
  facet normal 0.000000e+000 1.000000e+000 -0.000000e+000
    outer loop
      vertex   -2.899000e+001 2.500000e+000 1.200000e+001
      vertex   -3.048000e+001 2.500000e+000 1.200000e+001
      vertex   -2.899000e+001 2.500000e+000 1.250000e+001
    endloop
  endfacet
  facet normal 0.000000e+000 1.000000e+000 0.000000e+000
    outer loop
      vertex   -2.899000e+001 2.500000e+000 1.250000e+001
      vertex   -3.048000e+001 2.500000e+000 1.200000e+001
      vertex   -3.049000e+001 2.500000e+000 1.400000e+001
    endloop
  endfacet
  facet normal 0.000000e+000 1.000000e+000 0.000000e+000
    outer loop
      vertex   -3.049000e+001 2.500000e+000 1.400000e+001
      vertex   -3.048000e+001 2.500000e+000 1.200000e+001
      vertex   -3.199000e+001 2.500000e+000 1.400000e+001
    endloop
  endfacet
  facet normal 0.000000e+000 1.000000e+000 0.000000e+000
    outer loop
      vertex   -3.199000e+001 2.500000e+000 1.400000e+001
      vertex   -3.048000e+001 2.500000e+000 1.200000e+001
      vertex   -3.199000e+001 2.500000e+000 1.000000e+001
    endloop
  endfacet
  facet normal -0.000000e+000 1.000000e+000 0.000000e+000
    outer loop
      vertex   -3.199000e+001 2.500000e+000 1.000000e+001
      vertex   -3.048000e+001 2.500000e+000 1.200000e+001
      vertex   -3.048000e+001 2.500000e+000 1.000000e+001
    endloop
  endfacet
  facet normal 7.071068e-001 -0.000000e+000 7.071068e-001
    outer loop
      vertex   -2.899000e+001 -2.500000e+000 1.250000e+001
      vertex   -2.899000e+001 2.500000e+000 1.250000e+001
      vertex   -3.049000e+001 -2.500000e+000 1.400000e+001
    endloop
  endfacet
  facet normal 7.071068e-001 0.000000e+000 7.071068e-001
    outer loop
      vertex   -3.049000e+001 -2.500000e+000 1.400000e+001
      vertex   -2.899000e+001 2.500000e+000 1.250000e+001
      vertex   -3.049000e+001 2.500000e+000 1.400000e+001
    endloop
  endfacet
  facet normal -5.960929e-015 -1.000000e+000 0.000000e+000
    outer loop
      vertex   -2.899000e+001 -2.500000e+000 1.200000e+001
      vertex   -2.899000e+001 -2.500000e+000 1.250000e+001
      vertex   -3.048000e+001 -2.500000e+000 1.200000e+001
    endloop
  endfacet
  facet normal -5.950944e-015 -1.000000e+000 -2.975472e-017
    outer loop
      vertex   -3.048000e+001 -2.500000e+000 1.200000e+001
      vertex   -2.899000e+001 -2.500000e+000 1.250000e+001
      vertex   -3.049000e+001 -2.500000e+000 1.400000e+001
    endloop
  endfacet
  facet normal -5.921189e-015 -1.000000e+000 -2.960595e-017
    outer loop
      vertex   -3.199000e+001 -2.500000e+000 1.400000e+001
      vertex   -3.048000e+001 -2.500000e+000 1.200000e+001
      vertex   -3.049000e+001 -2.500000e+000 1.400000e+001
    endloop
  endfacet
  facet normal -5.881976e-015 -1.000000e+000 -0.000000e+000
    outer loop
      vertex   -3.199000e+001 -2.500000e+000 1.400000e+001
      vertex   -3.199000e+001 -2.500000e+000 1.000000e+001
      vertex   -3.048000e+001 -2.500000e+000 1.200000e+001
    endloop
  endfacet
  facet normal -5.881976e-015 -1.000000e+000 0.000000e+000
    outer loop
      vertex   -3.048000e+001 -2.500000e+000 1.200000e+001
      vertex   -3.199000e+001 -2.500000e+000 1.000000e+001
      vertex   -3.048000e+001 -2.500000e+000 1.000000e+001
    endloop
  endfacet
  facet normal 0.000000e+000 -0.000000e+000 1.000000e+000
    outer loop
      vertex   -3.049000e+001 -2.500000e+000 1.400000e+001
      vertex   -3.049000e+001 2.500000e+000 1.400000e+001
      vertex   -3.199000e+001 -2.500000e+000 1.400000e+001
    endloop
  endfacet
  facet normal 0.000000e+000 -0.000000e+000 1.000000e+000
    outer loop
      vertex   -3.199000e+001 -2.500000e+000 1.400000e+001
      vertex   -3.049000e+001 2.500000e+000 1.400000e+001
      vertex   -3.199000e+001 2.500000e+000 1.400000e+001
    endloop
  endfacet
  facet normal -1.000000e+000 0.000000e+000 0.000000e+000
    outer loop
      vertex   -3.199000e+001 -2.500000e+000 1.000000e+001
      vertex   -3.199000e+001 -2.500000e+000 1.400000e+001
      vertex   -3.199000e+001 2.500000e+000 1.000000e+001
    endloop
  endfacet
  facet normal -1.000000e+000 0.000000e+000 0.000000e+000
    outer loop
      vertex   -3.199000e+001 2.500000e+000 1.000000e+001
      vertex   -3.199000e+001 -2.500000e+000 1.400000e+001
      vertex   -3.199000e+001 2.500000e+000 1.400000e+001
    endloop
  endfacet
  facet normal 1.000000e+000 0.000000e+000 -0.000000e+000
    outer loop
      vertex   -2.899000e+001 2.500000e+000 1.200000e+001
      vertex   -2.899000e+001 2.500000e+000 1.250000e+001
      vertex   -2.899000e+001 -2.500000e+000 1.200000e+001
    endloop
  endfacet
  facet normal 1.000000e+000 0.000000e+000 -0.000000e+000
    outer loop
      vertex   -2.899000e+001 -2.500000e+000 1.200000e+001
      vertex   -2.899000e+001 2.500000e+000 1.250000e+001
      vertex   -2.899000e+001 -2.500000e+000 1.250000e+001
    endloop
  endfacet
  facet normal -1.000000e+000 0.000000e+000 -0.000000e+000
    outer loop
      vertex   3.048000e+001 -2.500000e+000 1.200000e+001
      vertex   3.048000e+001 2.500000e+000 1.200000e+001
      vertex   3.048000e+001 -2.500000e+000 1.000000e+001
    endloop
  endfacet
  facet normal -1.000000e+000 0.000000e+000 0.000000e+000
    outer loop
      vertex   3.048000e+001 -2.500000e+000 1.000000e+001
      vertex   3.048000e+001 2.500000e+000 1.200000e+001
      vertex   3.048000e+001 2.500000e+000 1.000000e+001
    endloop
  endfacet
  facet normal 0.000000e+000 0.000000e+000 -1.000000e+000
    outer loop
      vertex   3.048000e+001 -2.500000e+000 1.200000e+001
      vertex   2.900000e+001 -2.500000e+000 1.200000e+001
      vertex   3.048000e+001 2.500000e+000 1.200000e+001
    endloop
  endfacet
  facet normal -0.000000e+000 0.000000e+000 -1.000000e+000
    outer loop
      vertex   3.048000e+001 2.500000e+000 1.200000e+001
      vertex   2.900000e+001 -2.500000e+000 1.200000e+001
      vertex   2.900000e+001 2.500000e+000 1.200000e+001
    endloop
  endfacet
  facet normal 0.000000e+000 -1.000000e+000 0.000000e+000
    outer loop
      vertex   2.900000e+001 -2.500000e+000 1.200000e+001
      vertex   3.048000e+001 -2.500000e+000 1.200000e+001
      vertex   2.900000e+001 -2.500000e+000 1.250000e+001
    endloop
  endfacet
  facet normal 0.000000e+000 -1.000000e+000 0.000000e+000
    outer loop
      vertex   2.900000e+001 -2.500000e+000 1.250000e+001
      vertex   3.048000e+001 -2.500000e+000 1.200000e+001
      vertex   3.050000e+001 -2.500000e+000 1.400000e+001
    endloop
  endfacet
  facet normal 0.000000e+000 -1.000000e+000 -0.000000e+000
    outer loop
      vertex   3.050000e+001 -2.500000e+000 1.400000e+001
      vertex   3.048000e+001 -2.500000e+000 1.200000e+001
      vertex   3.200000e+001 -2.500000e+000 1.400000e+001
    endloop
  endfacet
  facet normal 0.000000e+000 -1.000000e+000 -0.000000e+000
    outer loop
      vertex   3.200000e+001 -2.500000e+000 1.400000e+001
      vertex   3.048000e+001 -2.500000e+000 1.200000e+001
      vertex   3.200000e+001 -2.500000e+000 1.000000e+001
    endloop
  endfacet
  facet normal -0.000000e+000 -1.000000e+000 -0.000000e+000
    outer loop
      vertex   3.200000e+001 -2.500000e+000 1.000000e+001
      vertex   3.048000e+001 -2.500000e+000 1.200000e+001
      vertex   3.048000e+001 -2.500000e+000 1.000000e+001
    endloop
  endfacet
  facet normal -7.071068e-001 0.000000e+000 7.071068e-001
    outer loop
      vertex   2.900000e+001 2.500000e+000 1.250000e+001
      vertex   2.900000e+001 -2.500000e+000 1.250000e+001
      vertex   3.050000e+001 2.500000e+000 1.400000e+001
    endloop
  endfacet
  facet normal -7.071068e-001 0.000000e+000 7.071068e-001
    outer loop
      vertex   3.050000e+001 2.500000e+000 1.400000e+001
      vertex   2.900000e+001 -2.500000e+000 1.250000e+001
      vertex   3.050000e+001 -2.500000e+000 1.400000e+001
    endloop
  endfacet
  facet normal -0.000000e+000 1.000000e+000 0.000000e+000
    outer loop
      vertex   2.900000e+001 2.500000e+000 1.200000e+001
      vertex   2.900000e+001 2.500000e+000 1.250000e+001
      vertex   3.048000e+001 2.500000e+000 1.200000e+001
    endloop
  endfacet
  facet normal 0.000000e+000 1.000000e+000 -0.000000e+000
    outer loop
      vertex   3.048000e+001 2.500000e+000 1.200000e+001
      vertex   2.900000e+001 2.500000e+000 1.250000e+001
      vertex   3.050000e+001 2.500000e+000 1.400000e+001
    endloop
  endfacet
  facet normal 5.921189e-015 1.000000e+000 -5.921189e-017
    outer loop
      vertex   3.200000e+001 2.500000e+000 1.400000e+001
      vertex   3.048000e+001 2.500000e+000 1.200000e+001
      vertex   3.050000e+001 2.500000e+000 1.400000e+001
    endloop
  endfacet
  facet normal 5.843279e-015 1.000000e+000 0.000000e+000
    outer loop
      vertex   3.200000e+001 2.500000e+000 1.400000e+001
      vertex   3.200000e+001 2.500000e+000 1.000000e+001
      vertex   3.048000e+001 2.500000e+000 1.200000e+001
    endloop
  endfacet
  facet normal 5.843279e-015 1.000000e+000 0.000000e+000
    outer loop
      vertex   3.048000e+001 2.500000e+000 1.200000e+001
      vertex   3.200000e+001 2.500000e+000 1.000000e+001
      vertex   3.048000e+001 2.500000e+000 1.000000e+001
    endloop
  endfacet
  facet normal -0.000000e+000 0.000000e+000 1.000000e+000
    outer loop
      vertex   3.050000e+001 2.500000e+000 1.400000e+001
      vertex   3.050000e+001 -2.500000e+000 1.400000e+001
      vertex   3.200000e+001 2.500000e+000 1.400000e+001
    endloop
  endfacet
  facet normal -0.000000e+000 0.000000e+000 1.000000e+000
    outer loop
      vertex   3.200000e+001 2.500000e+000 1.400000e+001
      vertex   3.050000e+001 -2.500000e+000 1.400000e+001
      vertex   3.200000e+001 -2.500000e+000 1.400000e+001
    endloop
  endfacet
  facet normal -1.000000e+000 0.000000e+000 0.000000e+000
    outer loop
      vertex   2.900000e+001 -2.500000e+000 1.200000e+001
      vertex   2.900000e+001 -2.500000e+000 1.250000e+001
      vertex   2.900000e+001 2.500000e+000 1.200000e+001
    endloop
  endfacet
  facet normal -1.000000e+000 0.000000e+000 0.000000e+000
    outer loop
      vertex   2.900000e+001 2.500000e+000 1.200000e+001
      vertex   2.900000e+001 -2.500000e+000 1.250000e+001
      vertex   2.900000e+001 2.500000e+000 1.250000e+001
    endloop
  endfacet
endsolid
