solid ascii
  facet normal 1.000000e+000 0.000000e+000 -0.000000e+000
    outer loop
      vertex   1.450000e+001 4.750000e+001 1.000000e+000
      vertex   1.450000e+001 4.750000e+001 1.000000e+001
      vertex   1.450000e+001 4.350000e+001 1.000000e+000
    endloop
  endfacet
  facet normal 1.000000e+000 0.000000e+000 -0.000000e+000
    outer loop
      vertex   1.450000e+001 4.350000e+001 1.000000e+000
      vertex   1.450000e+001 4.750000e+001 1.000000e+001
      vertex   1.450000e+001 4.350000e+001 1.000000e+001
    endloop
  endfacet
  facet normal 1.000000e+000 3.878508e-016 -1.480297e-015
    outer loop
      vertex   2.500000e+000 4.635500e+001 1.000000e+001
      vertex   2.500000e+000 4.750000e+001 1.000000e+001
      vertex   2.500000e+000 4.635500e+001 1.120000e+001
    endloop
  endfacet
  facet normal 1.000000e+000 1.939254e-015 -0.000000e+000
    outer loop
      vertex   2.500000e+000 4.635500e+001 1.120000e+001
      vertex   2.500000e+000 4.750000e+001 1.000000e+001
      vertex   2.500000e+000 4.750000e+001 1.250000e+001
    endloop
  endfacet
  facet normal 1.000000e+000 2.960595e-016 1.447275e-015
    outer loop
      vertex   2.500000e+000 4.600000e+001 1.250000e+001
      vertex   2.500000e+000 4.635500e+001 1.120000e+001
      vertex   2.500000e+000 4.750000e+001 1.250000e+001
    endloop
  endfacet
  facet normal 1.000000e+000 -1.073327e-015 1.073327e-015
    outer loop
      vertex   2.500000e+000 4.600000e+001 1.250000e+001
      vertex   2.500000e+000 4.500000e+001 1.150000e+001
      vertex   2.500000e+000 4.635500e+001 1.120000e+001
    endloop
  endfacet
  facet normal 1.000000e+000 -1.310964e-015 0.000000e+000
    outer loop
      vertex   2.500000e+000 4.635500e+001 1.120000e+001
      vertex   2.500000e+000 4.500000e+001 1.150000e+001
      vertex   2.500000e+000 4.500000e+001 1.120000e+001
    endloop
  endfacet
  facet normal 0.000000e+000 -7.071068e-001 7.071068e-001
    outer loop
      vertex   2.500000e+000 4.600000e+001 1.250000e+001
      vertex   -2.500000e+000 4.600000e+001 1.250000e+001
      vertex   2.500000e+000 4.500000e+001 1.150000e+001
    endloop
  endfacet
  facet normal 0.000000e+000 -7.071068e-001 7.071068e-001
    outer loop
      vertex   2.500000e+000 4.500000e+001 1.150000e+001
      vertex   -2.500000e+000 4.600000e+001 1.250000e+001
      vertex   -2.500000e+000 4.500000e+001 1.150000e+001
    endloop
  endfacet
  facet normal 0.000000e+000 -1.000000e+000 0.000000e+000
    outer loop
      vertex   -2.500000e+000 4.500000e+001 1.150000e+001
      vertex   -2.500000e+000 4.500000e+001 1.120000e+001
      vertex   2.500000e+000 4.500000e+001 1.150000e+001
    endloop
  endfacet
  facet normal 0.000000e+000 -1.000000e+000 -0.000000e+000
    outer loop
      vertex   2.500000e+000 4.500000e+001 1.150000e+001
      vertex   -2.500000e+000 4.500000e+001 1.120000e+001
      vertex   2.500000e+000 4.500000e+001 1.120000e+001
    endloop
  endfacet
  facet normal 0.000000e+000 -0.000000e+000 -1.000000e+000
    outer loop
      vertex   -2.500000e+000 4.635500e+001 1.120000e+001
      vertex   2.500000e+000 4.635500e+001 1.120000e+001
      vertex   -2.500000e+000 4.500000e+001 1.120000e+001
    endloop
  endfacet
  facet normal 0.000000e+000 -0.000000e+000 -1.000000e+000
    outer loop
      vertex   -2.500000e+000 4.500000e+001 1.120000e+001
      vertex   2.500000e+000 4.635500e+001 1.120000e+001
      vertex   2.500000e+000 4.500000e+001 1.120000e+001
    endloop
  endfacet
  facet normal 0.000000e+000 -1.000000e+000 0.000000e+000
    outer loop
      vertex   -2.500000e+000 4.635500e+001 1.000000e+001
      vertex   2.500000e+000 4.635500e+001 1.000000e+001
      vertex   -2.500000e+000 4.635500e+001 1.120000e+001
    endloop
  endfacet
  facet normal 0.000000e+000 -1.000000e+000 0.000000e+000
    outer loop
      vertex   -2.500000e+000 4.635500e+001 1.120000e+001
      vertex   2.500000e+000 4.635500e+001 1.000000e+001
      vertex   2.500000e+000 4.635500e+001 1.120000e+001
    endloop
  endfacet
  facet normal -1.000000e+000 -2.960595e-016 -1.447275e-015
    outer loop
      vertex   -2.500000e+000 4.600000e+001 1.250000e+001
      vertex   -2.500000e+000 4.750000e+001 1.250000e+001
      vertex   -2.500000e+000 4.635500e+001 1.120000e+001
    endloop
  endfacet
  facet normal -1.000000e+000 1.310964e-015 0.000000e+000
    outer loop
      vertex   -2.500000e+000 4.500000e+001 1.150000e+001
      vertex   -2.500000e+000 4.635500e+001 1.120000e+001
      vertex   -2.500000e+000 4.500000e+001 1.120000e+001
    endloop
  endfacet
  facet normal -1.000000e+000 1.073327e-015 -1.073327e-015
    outer loop
      vertex   -2.500000e+000 4.500000e+001 1.150000e+001
      vertex   -2.500000e+000 4.600000e+001 1.250000e+001
      vertex   -2.500000e+000 4.635500e+001 1.120000e+001
    endloop
  endfacet
  facet normal -1.000000e+000 -1.939254e-015 0.000000e+000
    outer loop
      vertex   -2.500000e+000 4.635500e+001 1.000000e+001
      vertex   -2.500000e+000 4.635500e+001 1.120000e+001
      vertex   -2.500000e+000 4.750000e+001 1.000000e+001
    endloop
  endfacet
  facet normal -1.000000e+000 -1.939254e-015 0.000000e+000
    outer loop
      vertex   -2.500000e+000 4.750000e+001 1.000000e+001
      vertex   -2.500000e+000 4.635500e+001 1.120000e+001
      vertex   -2.500000e+000 4.750000e+001 1.250000e+001
    endloop
  endfacet
  facet normal 0.000000e+000 0.000000e+000 1.000000e+000
    outer loop
      vertex   2.500000e+000 4.750000e+001 1.250000e+001
      vertex   -2.500000e+000 4.750000e+001 1.250000e+001
      vertex   2.500000e+000 4.600000e+001 1.250000e+001
    endloop
  endfacet
  facet normal 0.000000e+000 0.000000e+000 1.000000e+000
    outer loop
      vertex   2.500000e+000 4.600000e+001 1.250000e+001
      vertex   -2.500000e+000 4.750000e+001 1.250000e+001
      vertex   -2.500000e+000 4.600000e+001 1.250000e+001
    endloop
  endfacet
  facet normal 0.000000e+000 0.000000e+000 1.000000e+000
    outer loop
      vertex   -2.500000e+000 4.750000e+001 1.000000e+001
      vertex   -1.450000e+001 4.750000e+001 1.000000e+001
      vertex   -2.500000e+000 4.635500e+001 1.000000e+001
    endloop
  endfacet
  facet normal 0.000000e+000 0.000000e+000 1.000000e+000
    outer loop
      vertex   -2.500000e+000 4.635500e+001 1.000000e+001
      vertex   -1.450000e+001 4.750000e+001 1.000000e+001
      vertex   -1.450000e+001 4.350000e+001 1.000000e+001
    endloop
  endfacet
  facet normal -0.000000e+000 0.000000e+000 1.000000e+000
    outer loop
      vertex   2.500000e+000 4.635500e+001 1.000000e+001
      vertex   -1.450000e+001 4.350000e+001 1.000000e+001
      vertex   1.450000e+001 4.350000e+001 1.000000e+001
    endloop
  endfacet
  facet normal 0.000000e+000 0.000000e+000 1.000000e+000
    outer loop
      vertex   1.450000e+001 4.750000e+001 1.000000e+001
      vertex   2.500000e+000 4.635500e+001 1.000000e+001
      vertex   1.450000e+001 4.350000e+001 1.000000e+001
    endloop
  endfacet
  facet normal 0.000000e+000 0.000000e+000 1.000000e+000
    outer loop
      vertex   1.450000e+001 4.750000e+001 1.000000e+001
      vertex   2.500000e+000 4.750000e+001 1.000000e+001
      vertex   2.500000e+000 4.635500e+001 1.000000e+001
    endloop
  endfacet
  facet normal -0.000000e+000 0.000000e+000 1.000000e+000
    outer loop
      vertex   -2.500000e+000 4.635500e+001 1.000000e+001
      vertex   -1.450000e+001 4.350000e+001 1.000000e+001
      vertex   2.500000e+000 4.635500e+001 1.000000e+001
    endloop
  endfacet
  facet normal -1.000000e+000 0.000000e+000 0.000000e+000
    outer loop
      vertex   -1.450000e+001 4.350000e+001 1.000000e+000
      vertex   -1.450000e+001 4.350000e+001 1.000000e+001
      vertex   -1.450000e+001 4.750000e+001 1.000000e+000
    endloop
  endfacet
  facet normal -1.000000e+000 -2.220446e-015 -9.868649e-016
    outer loop
      vertex   -1.450000e+001 4.750000e+001 1.000000e+000
      vertex   -1.450000e+001 4.350000e+001 1.000000e+001
      vertex   -1.450000e+001 4.750000e+001 1.000000e+001
    endloop
  endfacet
  facet normal 2.450147e-016 -1.000000e+000 0.000000e+000
    outer loop
      vertex   1.450000e+001 4.350000e+001 1.000000e+000
      vertex   1.450000e+001 4.350000e+001 1.000000e+001
      vertex   -1.450000e+001 4.350000e+001 1.000000e+000
    endloop
  endfacet
  facet normal 2.450147e-016 -1.000000e+000 0.000000e+000
    outer loop
      vertex   -1.450000e+001 4.350000e+001 1.000000e+000
      vertex   1.450000e+001 4.350000e+001 1.000000e+001
      vertex   -1.450000e+001 4.350000e+001 1.000000e+001
    endloop
  endfacet
  facet normal -2.220446e-016 2.220446e-016 1.000000e+000
    outer loop
      vertex   8.000000e+000 -2.750000e+001 1.000000e+000
      vertex   1.700000e+001 -1.750000e+001 1.000000e+000
      vertex   8.000000e+000 -2.650000e+001 1.000000e+000
    endloop
  endfacet
  facet normal 2.762277e-017 -2.656036e-018 1.000000e+000
    outer loop
      vertex   8.000000e+000 -2.750000e+001 1.000000e+000
      vertex   1.450000e+001 -4.350000e+001 1.000000e+000
      vertex   1.700000e+001 -1.750000e+001 1.000000e+000
    endloop
  endfacet
  facet normal 7.656711e-018 -1.076725e-017 1.000000e+000
    outer loop
      vertex   8.000000e+000 -2.750000e+001 1.000000e+000
      vertex   0.000000e+000 -3.318889e+001 1.000000e+000
      vertex   1.450000e+001 -4.350000e+001 1.000000e+000
    endloop
  endfacet
  facet normal 0.000000e+000 0.000000e+000 1.000000e+000
    outer loop
      vertex   8.000000e+000 -2.750000e+001 1.000000e+000
      vertex   -8.000000e+000 -2.750000e+001 1.000000e+000
      vertex   0.000000e+000 -3.318889e+001 1.000000e+000
    endloop
  endfacet
  facet normal -7.656711e-018 -1.076725e-017 1.000000e+000
    outer loop
      vertex   0.000000e+000 -3.318889e+001 1.000000e+000
      vertex   -8.000000e+000 -2.750000e+001 1.000000e+000
      vertex   -1.450000e+001 -4.350000e+001 1.000000e+000
    endloop
  endfacet
  facet normal 1.055254e-032 -2.153450e-017 1.000000e+000
    outer loop
      vertex   1.450000e+001 -4.350000e+001 1.000000e+000
      vertex   0.000000e+000 -3.318889e+001 1.000000e+000
      vertex   -1.450000e+001 -4.350000e+001 1.000000e+000
    endloop
  endfacet
  facet normal -2.762277e-017 -2.656036e-018 1.000000e+000
    outer loop
      vertex   -1.450000e+001 -4.350000e+001 1.000000e+000
      vertex   -8.000000e+000 -2.750000e+001 1.000000e+000
      vertex   -1.700000e+001 -1.750000e+001 1.000000e+000
    endloop
  endfacet
  facet normal 2.220446e-016 2.135044e-017 1.000000e+000
    outer loop
      vertex   -1.800000e+001 -1.750000e+001 1.000000e+000
      vertex   -1.450000e+001 -4.350000e+001 1.000000e+000
      vertex   -1.700000e+001 -1.750000e+001 1.000000e+000
    endloop
  endfacet
  facet normal 1.460820e-017 -6.573689e-018 1.000000e+000
    outer loop
      vertex   -1.800000e+001 -1.750000e+001 1.000000e+000
      vertex   -3.150000e+001 -4.750000e+001 1.000000e+000
      vertex   -1.450000e+001 -4.350000e+001 1.000000e+000
    endloop
  endfacet
  facet normal -2.046494e-017 9.209223e-018 1.000000e+000
    outer loop
      vertex   -1.800000e+001 -1.750000e+001 1.000000e+000
      vertex   -2.750000e+001 -1.450000e+001 1.000000e+000
      vertex   -3.150000e+001 -4.750000e+001 1.000000e+000
    endloop
  endfacet
  facet normal -2.337312e-017 0.000000e+000 1.000000e+000
    outer loop
      vertex   -1.800000e+001 -1.750000e+001 1.000000e+000
      vertex   -1.800000e+001 1.750000e+001 1.000000e+000
      vertex   -2.750000e+001 -1.450000e+001 1.000000e+000
    endloop
  endfacet
  facet normal -2.337312e-017 0.000000e+000 1.000000e+000
    outer loop
      vertex   -2.750000e+001 -1.450000e+001 1.000000e+000
      vertex   -1.800000e+001 1.750000e+001 1.000000e+000
      vertex   -2.750000e+001 1.450000e+001 1.000000e+000
    endloop
  endfacet
  facet normal -2.046494e-017 -9.209223e-018 1.000000e+000
    outer loop
      vertex   -2.750000e+001 1.450000e+001 1.000000e+000
      vertex   -1.800000e+001 1.750000e+001 1.000000e+000
      vertex   -3.150000e+001 4.750000e+001 1.000000e+000
    endloop
  endfacet
  facet normal 0.000000e+000 -6.728624e-018 1.000000e+000
    outer loop
      vertex   -3.150000e+001 1.450000e+001 1.000000e+000
      vertex   -2.750000e+001 1.450000e+001 1.000000e+000
      vertex   -3.150000e+001 4.750000e+001 1.000000e+000
    endloop
  endfacet
  facet normal 0.000000e+000 -8.018277e-017 1.000000e+000
    outer loop
      vertex   8.000000e+000 -2.650000e+001 1.000000e+000
      vertex   0.000000e+000 -2.373077e+001 1.000000e+000
      vertex   -8.000000e+000 -2.650000e+001 1.000000e+000
    endloop
  endfacet
  facet normal 2.775558e-017 0.000000e+000 1.000000e+000
    outer loop
      vertex   8.000000e+000 -2.650000e+001 1.000000e+000
      vertex   0.000000e+000 -1.750000e+001 1.000000e+000
      vertex   0.000000e+000 -2.373077e+001 1.000000e+000
    endloop
  endfacet
  facet normal 1.306145e-017 -1.306145e-017 1.000000e+000
    outer loop
      vertex   8.000000e+000 -2.650000e+001 1.000000e+000
      vertex   1.700000e+001 -1.750000e+001 1.000000e+000
      vertex   0.000000e+000 -1.750000e+001 1.000000e+000
    endloop
  endfacet
  facet normal 1.306145e-017 0.000000e+000 1.000000e+000
    outer loop
      vertex   0.000000e+000 -1.750000e+001 1.000000e+000
      vertex   1.700000e+001 -1.750000e+001 1.000000e+000
      vertex   0.000000e+000 8.881784e-015 1.000000e+000
    endloop
  endfacet
  facet normal -6.530724e-018 -6.344132e-018 1.000000e+000
    outer loop
      vertex   -1.700000e+001 -1.750000e+001 1.000000e+000
      vertex   0.000000e+000 8.881784e-015 1.000000e+000
      vertex   -1.700000e+001 1.750000e+001 1.000000e+000
    endloop
  endfacet
  facet normal -1.306145e-017 0.000000e+000 1.000000e+000
    outer loop
      vertex   -1.700000e+001 -1.750000e+001 1.000000e+000
      vertex   0.000000e+000 -1.750000e+001 1.000000e+000
      vertex   0.000000e+000 8.881784e-015 1.000000e+000
    endloop
  endfacet
  facet normal -1.306145e-017 -1.306145e-017 1.000000e+000
    outer loop
      vertex   -1.700000e+001 -1.750000e+001 1.000000e+000
      vertex   -8.000000e+000 -2.650000e+001 1.000000e+000
      vertex   0.000000e+000 -1.750000e+001 1.000000e+000
    endloop
  endfacet
  facet normal 2.220446e-016 2.220446e-016 1.000000e+000
    outer loop
      vertex   -1.700000e+001 -1.750000e+001 1.000000e+000
      vertex   -8.000000e+000 -2.750000e+001 1.000000e+000
      vertex   -8.000000e+000 -2.650000e+001 1.000000e+000
    endloop
  endfacet
  facet normal 1.460820e-017 6.573689e-018 1.000000e+000
    outer loop
      vertex   -3.150000e+001 4.750000e+001 1.000000e+000
      vertex   -1.800000e+001 1.750000e+001 1.000000e+000
      vertex   -1.450000e+001 4.350000e+001 1.000000e+000
    endloop
  endfacet
  facet normal 1.306145e-017 0.000000e+000 1.000000e+000
    outer loop
      vertex   -1.450000e+001 4.750000e+001 1.000000e+000
      vertex   -3.150000e+001 4.750000e+001 1.000000e+000
      vertex   -1.450000e+001 4.350000e+001 1.000000e+000
    endloop
  endfacet
  facet normal -1.306145e-017 0.000000e+000 1.000000e+000
    outer loop
      vertex   1.450000e+001 4.750000e+001 1.000000e+000
      vertex   1.450000e+001 4.350000e+001 1.000000e+000
      vertex   3.150000e+001 4.750000e+001 1.000000e+000
    endloop
  endfacet
  facet normal -1.460820e-017 6.573689e-018 1.000000e+000
    outer loop
      vertex   3.150000e+001 4.750000e+001 1.000000e+000
      vertex   1.450000e+001 4.350000e+001 1.000000e+000
      vertex   1.800000e+001 1.750000e+001 1.000000e+000
    endloop
  endfacet
  facet normal 2.337312e-017 0.000000e+000 1.000000e+000
    outer loop
      vertex   2.750000e+001 1.450000e+001 1.000000e+000
      vertex   1.800000e+001 1.750000e+001 1.000000e+000
      vertex   1.800000e+001 -1.750000e+001 1.000000e+000
    endloop
  endfacet
  facet normal 2.046494e-017 9.209223e-018 1.000000e+000
    outer loop
      vertex   2.750000e+001 -1.450000e+001 1.000000e+000
      vertex   1.800000e+001 -1.750000e+001 1.000000e+000
      vertex   3.150000e+001 -4.750000e+001 1.000000e+000
    endloop
  endfacet
  facet normal 0.000000e+000 6.728624e-018 1.000000e+000
    outer loop
      vertex   3.150000e+001 -1.450000e+001 1.000000e+000
      vertex   2.750000e+001 -1.450000e+001 1.000000e+000
      vertex   3.150000e+001 -4.750000e+001 1.000000e+000
    endloop
  endfacet
  facet normal -5.276269e-033 2.153450e-017 1.000000e+000
    outer loop
      vertex   -1.450000e+001 4.350000e+001 1.000000e+000
      vertex   0.000000e+000 3.318889e+001 1.000000e+000
      vertex   1.450000e+001 4.350000e+001 1.000000e+000
    endloop
  endfacet
  facet normal -7.656711e-018 1.076725e-017 1.000000e+000
    outer loop
      vertex   -1.450000e+001 4.350000e+001 1.000000e+000
      vertex   -8.000000e+000 2.750000e+001 1.000000e+000
      vertex   0.000000e+000 3.318889e+001 1.000000e+000
    endloop
  endfacet
  facet normal -1.062414e-017 9.561729e-018 1.000000e+000
    outer loop
      vertex   -1.450000e+001 4.350000e+001 1.000000e+000
      vertex   -1.700000e+001 1.750000e+001 1.000000e+000
      vertex   -8.000000e+000 2.750000e+001 1.000000e+000
    endloop
  endfacet
  facet normal -0.000000e+000 8.540177e-018 1.000000e+000
    outer loop
      vertex   -1.450000e+001 4.350000e+001 1.000000e+000
      vertex   -1.800000e+001 1.750000e+001 1.000000e+000
      vertex   -1.700000e+001 1.750000e+001 1.000000e+000
    endloop
  endfacet
  facet normal 0.000000e+000 6.728624e-018 1.000000e+000
    outer loop
      vertex   -2.750000e+001 -1.450000e+001 1.000000e+000
      vertex   -3.150000e+001 -1.450000e+001 1.000000e+000
      vertex   -3.150000e+001 -4.750000e+001 1.000000e+000
    endloop
  endfacet
  facet normal 1.306145e-017 2.900224e-032 1.000000e+000
    outer loop
      vertex   -3.150000e+001 -4.750000e+001 1.000000e+000
      vertex   -1.450000e+001 -4.750000e+001 1.000000e+000
      vertex   -1.450000e+001 -4.350000e+001 1.000000e+000
    endloop
  endfacet
  facet normal -1.306145e-017 0.000000e+000 1.000000e+000
    outer loop
      vertex   1.450000e+001 -4.750000e+001 1.000000e+000
      vertex   3.150000e+001 -4.750000e+001 1.000000e+000
      vertex   1.450000e+001 -4.350000e+001 1.000000e+000
    endloop
  endfacet
  facet normal -1.460820e-017 -6.573689e-018 1.000000e+000
    outer loop
      vertex   1.450000e+001 -4.350000e+001 1.000000e+000
      vertex   3.150000e+001 -4.750000e+001 1.000000e+000
      vertex   1.800000e+001 -1.750000e+001 1.000000e+000
    endloop
  endfacet
  facet normal -2.220446e-016 2.135044e-017 1.000000e+000
    outer loop
      vertex   1.700000e+001 -1.750000e+001 1.000000e+000
      vertex   1.450000e+001 -4.350000e+001 1.000000e+000
      vertex   1.800000e+001 -1.750000e+001 1.000000e+000
    endloop
  endfacet
  facet normal 2.337312e-017 -0.000000e+000 1.000000e+000
    outer loop
      vertex   2.750000e+001 -1.450000e+001 1.000000e+000
      vertex   2.750000e+001 1.450000e+001 1.000000e+000
      vertex   1.800000e+001 -1.750000e+001 1.000000e+000
    endloop
  endfacet
  facet normal 0.000000e+000 -6.728624e-018 1.000000e+000
    outer loop
      vertex   3.150000e+001 1.450000e+001 1.000000e+000
      vertex   3.150000e+001 4.750000e+001 1.000000e+000
      vertex   2.750000e+001 1.450000e+001 1.000000e+000
    endloop
  endfacet
  facet normal 2.046494e-017 -9.209223e-018 1.000000e+000
    outer loop
      vertex   2.750000e+001 1.450000e+001 1.000000e+000
      vertex   3.150000e+001 4.750000e+001 1.000000e+000
      vertex   1.800000e+001 1.750000e+001 1.000000e+000
    endloop
  endfacet
  facet normal -2.220446e-016 -2.135044e-017 1.000000e+000
    outer loop
      vertex   1.800000e+001 1.750000e+001 1.000000e+000
      vertex   1.450000e+001 4.350000e+001 1.000000e+000
      vertex   1.700000e+001 1.750000e+001 1.000000e+000
    endloop
  endfacet
  facet normal 2.762277e-017 2.656036e-018 1.000000e+000
    outer loop
      vertex   1.700000e+001 1.750000e+001 1.000000e+000
      vertex   1.450000e+001 4.350000e+001 1.000000e+000
      vertex   8.000000e+000 2.750000e+001 1.000000e+000
    endloop
  endfacet
  facet normal -2.220446e-016 -2.220446e-016 1.000000e+000
    outer loop
      vertex   8.000000e+000 2.650000e+001 1.000000e+000
      vertex   1.700000e+001 1.750000e+001 1.000000e+000
      vertex   8.000000e+000 2.750000e+001 1.000000e+000
    endloop
  endfacet
  facet normal 6.436076e-018 6.436076e-018 1.000000e+000
    outer loop
      vertex   8.000000e+000 2.650000e+001 1.000000e+000
      vertex   0.000000e+000 8.881784e-015 1.000000e+000
      vertex   1.700000e+001 1.750000e+001 1.000000e+000
    endloop
  endfacet
  facet normal 1.387779e-017 4.189521e-018 1.000000e+000
    outer loop
      vertex   8.000000e+000 2.650000e+001 1.000000e+000
      vertex   -8.000000e+000 2.650000e+001 1.000000e+000
      vertex   0.000000e+000 8.881784e-015 1.000000e+000
    endloop
  endfacet
  facet normal 0.000000e+000 0.000000e+000 1.000000e+000
    outer loop
      vertex   0.000000e+000 8.881784e-015 1.000000e+000
      vertex   -8.000000e+000 2.650000e+001 1.000000e+000
      vertex   -1.700000e+001 1.750000e+001 1.000000e+000
    endloop
  endfacet
  facet normal 0.000000e+000 0.000000e+000 1.000000e+000
    outer loop
      vertex   -1.700000e+001 1.750000e+001 1.000000e+000
      vertex   -8.000000e+000 2.650000e+001 1.000000e+000
      vertex   -8.000000e+000 2.750000e+001 1.000000e+000
    endloop
  endfacet
  facet normal 1.306145e-017 -0.000000e+000 1.000000e+000
    outer loop
      vertex   1.700000e+001 -1.750000e+001 1.000000e+000
      vertex   1.700000e+001 1.750000e+001 1.000000e+000
      vertex   0.000000e+000 8.881784e-015 1.000000e+000
    endloop
  endfacet
  facet normal 0.000000e+000 -0.000000e+000 1.000000e+000
    outer loop
      vertex   -8.000000e+000 2.750000e+001 1.000000e+000
      vertex   8.000000e+000 2.750000e+001 1.000000e+000
      vertex   0.000000e+000 3.318889e+001 1.000000e+000
    endloop
  endfacet
  facet normal 7.656711e-018 1.076725e-017 1.000000e+000
    outer loop
      vertex   0.000000e+000 3.318889e+001 1.000000e+000
      vertex   8.000000e+000 2.750000e+001 1.000000e+000
      vertex   1.450000e+001 4.350000e+001 1.000000e+000
    endloop
  endfacet
  facet normal -2.775558e-017 0.000000e+000 1.000000e+000
    outer loop
      vertex   0.000000e+000 -2.373077e+001 1.000000e+000
      vertex   0.000000e+000 -1.750000e+001 1.000000e+000
      vertex   -8.000000e+000 -2.650000e+001 1.000000e+000
    endloop
  endfacet
  facet normal 0.000000e+000 -0.000000e+000 -1.000000e+000
    outer loop
      vertex   -3.150000e+001 4.750000e+001 0.000000e+000
      vertex   0.000000e+000 4.750000e+001 0.000000e+000
      vertex   -3.150000e+001 0.000000e+000 0.000000e+000
    endloop
  endfacet
  facet normal 0.000000e+000 0.000000e+000 -1.000000e+000
    outer loop
      vertex   -3.150000e+001 0.000000e+000 0.000000e+000
      vertex   0.000000e+000 4.750000e+001 0.000000e+000
      vertex   0.000000e+000 0.000000e+000 0.000000e+000
    endloop
  endfacet
  facet normal 0.000000e+000 0.000000e+000 -1.000000e+000
    outer loop
      vertex   -3.150000e+001 -4.750000e+001 0.000000e+000
      vertex   0.000000e+000 0.000000e+000 0.000000e+000
      vertex   0.000000e+000 -4.750000e+001 0.000000e+000
    endloop
  endfacet
  facet normal 0.000000e+000 0.000000e+000 -1.000000e+000
    outer loop
      vertex   -3.150000e+001 -4.750000e+001 0.000000e+000
      vertex   -3.150000e+001 0.000000e+000 0.000000e+000
      vertex   0.000000e+000 0.000000e+000 0.000000e+000
    endloop
  endfacet
  facet normal 0.000000e+000 -0.000000e+000 -1.000000e+000
    outer loop
      vertex   0.000000e+000 4.750000e+001 0.000000e+000
      vertex   3.150000e+001 4.750000e+001 0.000000e+000
      vertex   0.000000e+000 0.000000e+000 0.000000e+000
    endloop
  endfacet
  facet normal 0.000000e+000 0.000000e+000 -1.000000e+000
    outer loop
      vertex   0.000000e+000 0.000000e+000 0.000000e+000
      vertex   3.150000e+001 4.750000e+001 0.000000e+000
      vertex   3.150000e+001 0.000000e+000 0.000000e+000
    endloop
  endfacet
  facet normal 0.000000e+000 0.000000e+000 -1.000000e+000
    outer loop
      vertex   0.000000e+000 -4.750000e+001 0.000000e+000
      vertex   3.150000e+001 0.000000e+000 0.000000e+000
      vertex   3.150000e+001 -4.750000e+001 0.000000e+000
    endloop
  endfacet
  facet normal 0.000000e+000 0.000000e+000 -1.000000e+000
    outer loop
      vertex   0.000000e+000 -4.750000e+001 0.000000e+000
      vertex   0.000000e+000 0.000000e+000 0.000000e+000
      vertex   3.150000e+001 0.000000e+000 0.000000e+000
    endloop
  endfacet
  facet normal -1.000000e+000 0.000000e+000 0.000000e+000
    outer loop
      vertex   -8.000000e+000 2.650000e+001 1.000000e+000
      vertex   -8.000000e+000 2.650000e+001 5.000000e+000
      vertex   -8.000000e+000 2.750000e+001 1.000000e+000
    endloop
  endfacet
  facet normal -1.000000e+000 0.000000e+000 0.000000e+000
    outer loop
      vertex   -8.000000e+000 2.750000e+001 1.000000e+000
      vertex   -8.000000e+000 2.650000e+001 5.000000e+000
      vertex   -8.000000e+000 2.750000e+001 5.000000e+000
    endloop
  endfacet
  facet normal -0.000000e+000 -1.000000e+000 0.000000e+000
    outer loop
      vertex   8.000000e+000 2.650000e+001 1.000000e+000
      vertex   8.000000e+000 2.650000e+001 5.000000e+000
      vertex   -8.000000e+000 2.650000e+001 1.000000e+000
    endloop
  endfacet
  facet normal 0.000000e+000 -1.000000e+000 0.000000e+000
    outer loop
      vertex   -8.000000e+000 2.650000e+001 1.000000e+000
      vertex   8.000000e+000 2.650000e+001 5.000000e+000
      vertex   -8.000000e+000 2.650000e+001 5.000000e+000
    endloop
  endfacet
  facet normal -0.000000e+000 1.000000e+000 0.000000e+000
    outer loop
      vertex   -8.000000e+000 2.750000e+001 1.000000e+000
      vertex   -8.000000e+000 2.750000e+001 5.000000e+000
      vertex   8.000000e+000 2.750000e+001 1.000000e+000
    endloop
  endfacet
  facet normal 0.000000e+000 1.000000e+000 -0.000000e+000
    outer loop
      vertex   8.000000e+000 2.750000e+001 1.000000e+000
      vertex   -8.000000e+000 2.750000e+001 5.000000e+000
      vertex   8.000000e+000 2.750000e+001 5.000000e+000
    endloop
  endfacet
  facet normal 0.000000e+000 0.000000e+000 1.000000e+000
    outer loop
      vertex   8.000000e+000 2.750000e+001 5.000000e+000
      vertex   -8.000000e+000 2.750000e+001 5.000000e+000
      vertex   8.000000e+000 2.650000e+001 5.000000e+000
    endloop
  endfacet
  facet normal 0.000000e+000 0.000000e+000 1.000000e+000
    outer loop
      vertex   8.000000e+000 2.650000e+001 5.000000e+000
      vertex   -8.000000e+000 2.750000e+001 5.000000e+000
      vertex   -8.000000e+000 2.650000e+001 5.000000e+000
    endloop
  endfacet
  facet normal 1.000000e+000 0.000000e+000 -0.000000e+000
    outer loop
      vertex   8.000000e+000 2.750000e+001 1.000000e+000
      vertex   8.000000e+000 2.750000e+001 5.000000e+000
      vertex   8.000000e+000 2.650000e+001 1.000000e+000
    endloop
  endfacet
  facet normal 1.000000e+000 0.000000e+000 -0.000000e+000
    outer loop
      vertex   8.000000e+000 2.650000e+001 1.000000e+000
      vertex   8.000000e+000 2.750000e+001 5.000000e+000
      vertex   8.000000e+000 2.650000e+001 5.000000e+000
    endloop
  endfacet
  facet normal 1.000000e+000 0.000000e+000 -0.000000e+000
    outer loop
      vertex   1.800000e+001 1.750000e+001 1.000000e+000
      vertex   1.800000e+001 1.750000e+001 5.000000e+000
      vertex   1.800000e+001 -1.750000e+001 1.000000e+000
    endloop
  endfacet
  facet normal 1.000000e+000 0.000000e+000 -0.000000e+000
    outer loop
      vertex   1.800000e+001 -1.750000e+001 1.000000e+000
      vertex   1.800000e+001 1.750000e+001 5.000000e+000
      vertex   1.800000e+001 -1.750000e+001 5.000000e+000
    endloop
  endfacet
  facet normal -0.000000e+000 1.000000e+000 0.000000e+000
    outer loop
      vertex   1.700000e+001 1.750000e+001 1.000000e+000
      vertex   1.700000e+001 1.750000e+001 5.000000e+000
      vertex   1.800000e+001 1.750000e+001 1.000000e+000
    endloop
  endfacet
  facet normal 0.000000e+000 1.000000e+000 -0.000000e+000
    outer loop
      vertex   1.800000e+001 1.750000e+001 1.000000e+000
      vertex   1.700000e+001 1.750000e+001 5.000000e+000
      vertex   1.800000e+001 1.750000e+001 5.000000e+000
    endloop
  endfacet
  facet normal -0.000000e+000 0.000000e+000 1.000000e+000
    outer loop
      vertex   1.700000e+001 1.750000e+001 5.000000e+000
      vertex   1.700000e+001 -1.750000e+001 5.000000e+000
      vertex   1.800000e+001 1.750000e+001 5.000000e+000
    endloop
  endfacet
  facet normal -0.000000e+000 0.000000e+000 1.000000e+000
    outer loop
      vertex   1.800000e+001 1.750000e+001 5.000000e+000
      vertex   1.700000e+001 -1.750000e+001 5.000000e+000
      vertex   1.800000e+001 -1.750000e+001 5.000000e+000
    endloop
  endfacet
  facet normal -1.000000e+000 0.000000e+000 0.000000e+000
    outer loop
      vertex   1.700000e+001 -1.750000e+001 1.000000e+000
      vertex   1.700000e+001 -1.750000e+001 5.000000e+000
      vertex   1.700000e+001 1.750000e+001 1.000000e+000
    endloop
  endfacet
  facet normal -1.000000e+000 0.000000e+000 0.000000e+000
    outer loop
      vertex   1.700000e+001 1.750000e+001 1.000000e+000
      vertex   1.700000e+001 -1.750000e+001 5.000000e+000
      vertex   1.700000e+001 1.750000e+001 5.000000e+000
    endloop
  endfacet
  facet normal -0.000000e+000 -1.000000e+000 0.000000e+000
    outer loop
      vertex   1.800000e+001 -1.750000e+001 1.000000e+000
      vertex   1.800000e+001 -1.750000e+001 5.000000e+000
      vertex   1.700000e+001 -1.750000e+001 1.000000e+000
    endloop
  endfacet
  facet normal 0.000000e+000 -1.000000e+000 0.000000e+000
    outer loop
      vertex   1.700000e+001 -1.750000e+001 1.000000e+000
      vertex   1.800000e+001 -1.750000e+001 5.000000e+000
      vertex   1.700000e+001 -1.750000e+001 5.000000e+000
    endloop
  endfacet
  facet normal -1.000000e+000 -2.220446e-015 0.000000e+000
    outer loop
      vertex   -1.450000e+001 -4.750000e+001 1.000000e+000
      vertex   -1.450000e+001 -4.750000e+001 1.000000e+001
      vertex   -1.450000e+001 -4.350000e+001 1.000000e+000
    endloop
  endfacet
  facet normal -1.000000e+000 -2.220446e-015 0.000000e+000
    outer loop
      vertex   -1.450000e+001 -4.350000e+001 1.000000e+000
      vertex   -1.450000e+001 -4.750000e+001 1.000000e+001
      vertex   -1.450000e+001 -4.350000e+001 1.000000e+001
    endloop
  endfacet
  facet normal -1.000000e+000 1.939254e-015 0.000000e+000
    outer loop
      vertex   -2.500000e+000 -4.635500e+001 1.000000e+001
      vertex   -2.500000e+000 -4.750000e+001 1.000000e+001
      vertex   -2.500000e+000 -4.635500e+001 1.120000e+001
    endloop
  endfacet
  facet normal -1.000000e+000 1.939254e-015 0.000000e+000
    outer loop
      vertex   -2.500000e+000 -4.635500e+001 1.120000e+001
      vertex   -2.500000e+000 -4.750000e+001 1.000000e+001
      vertex   -2.500000e+000 -4.750000e+001 1.250000e+001
    endloop
  endfacet
  facet normal -1.000000e+000 2.960595e-016 -1.447275e-015
    outer loop
      vertex   -2.500000e+000 -4.600000e+001 1.250000e+001
      vertex   -2.500000e+000 -4.635500e+001 1.120000e+001
      vertex   -2.500000e+000 -4.750000e+001 1.250000e+001
    endloop
  endfacet
  facet normal -1.000000e+000 -1.073327e-015 -1.073327e-015
    outer loop
      vertex   -2.500000e+000 -4.600000e+001 1.250000e+001
      vertex   -2.500000e+000 -4.500000e+001 1.150000e+001
      vertex   -2.500000e+000 -4.635500e+001 1.120000e+001
    endloop
  endfacet
  facet normal -1.000000e+000 -1.310964e-015 -0.000000e+000
    outer loop
      vertex   -2.500000e+000 -4.635500e+001 1.120000e+001
      vertex   -2.500000e+000 -4.500000e+001 1.150000e+001
      vertex   -2.500000e+000 -4.500000e+001 1.120000e+001
    endloop
  endfacet
  facet normal -0.000000e+000 7.071068e-001 7.071068e-001
    outer loop
      vertex   -2.500000e+000 -4.600000e+001 1.250000e+001
      vertex   2.500000e+000 -4.600000e+001 1.250000e+001
      vertex   -2.500000e+000 -4.500000e+001 1.150000e+001
    endloop
  endfacet
  facet normal 0.000000e+000 7.071068e-001 7.071068e-001
    outer loop
      vertex   -2.500000e+000 -4.500000e+001 1.150000e+001
      vertex   2.500000e+000 -4.600000e+001 1.250000e+001
      vertex   2.500000e+000 -4.500000e+001 1.150000e+001
    endloop
  endfacet
  facet normal 0.000000e+000 1.000000e+000 0.000000e+000
    outer loop
      vertex   2.500000e+000 -4.500000e+001 1.150000e+001
      vertex   2.500000e+000 -4.500000e+001 1.120000e+001
      vertex   -2.500000e+000 -4.500000e+001 1.150000e+001
    endloop
  endfacet
  facet normal 0.000000e+000 1.000000e+000 0.000000e+000
    outer loop
      vertex   -2.500000e+000 -4.500000e+001 1.150000e+001
      vertex   2.500000e+000 -4.500000e+001 1.120000e+001
      vertex   -2.500000e+000 -4.500000e+001 1.120000e+001
    endloop
  endfacet
  facet normal 0.000000e+000 0.000000e+000 -1.000000e+000
    outer loop
      vertex   2.500000e+000 -4.635500e+001 1.120000e+001
      vertex   -2.500000e+000 -4.635500e+001 1.120000e+001
      vertex   2.500000e+000 -4.500000e+001 1.120000e+001
    endloop
  endfacet
  facet normal -0.000000e+000 0.000000e+000 -1.000000e+000
    outer loop
      vertex   2.500000e+000 -4.500000e+001 1.120000e+001
      vertex   -2.500000e+000 -4.635500e+001 1.120000e+001
      vertex   -2.500000e+000 -4.500000e+001 1.120000e+001
    endloop
  endfacet
  facet normal 0.000000e+000 1.000000e+000 -0.000000e+000
    outer loop
      vertex   2.500000e+000 -4.635500e+001 1.000000e+001
      vertex   -2.500000e+000 -4.635500e+001 1.000000e+001
      vertex   2.500000e+000 -4.635500e+001 1.120000e+001
    endloop
  endfacet
  facet normal 0.000000e+000 1.000000e+000 -0.000000e+000
    outer loop
      vertex   2.500000e+000 -4.635500e+001 1.120000e+001
      vertex   -2.500000e+000 -4.635500e+001 1.000000e+001
      vertex   -2.500000e+000 -4.635500e+001 1.120000e+001
    endloop
  endfacet
  facet normal 1.000000e+000 -2.960595e-016 1.447275e-015
    outer loop
      vertex   2.500000e+000 -4.600000e+001 1.250000e+001
      vertex   2.500000e+000 -4.750000e+001 1.250000e+001
      vertex   2.500000e+000 -4.635500e+001 1.120000e+001
    endloop
  endfacet
  facet normal 1.000000e+000 1.310964e-015 0.000000e+000
    outer loop
      vertex   2.500000e+000 -4.500000e+001 1.150000e+001
      vertex   2.500000e+000 -4.635500e+001 1.120000e+001
      vertex   2.500000e+000 -4.500000e+001 1.120000e+001
    endloop
  endfacet
  facet normal 1.000000e+000 1.073327e-015 1.073327e-015
    outer loop
      vertex   2.500000e+000 -4.500000e+001 1.150000e+001
      vertex   2.500000e+000 -4.600000e+001 1.250000e+001
      vertex   2.500000e+000 -4.635500e+001 1.120000e+001
    endloop
  endfacet
  facet normal 1.000000e+000 -1.939254e-015 0.000000e+000
    outer loop
      vertex   2.500000e+000 -4.635500e+001 1.000000e+001
      vertex   2.500000e+000 -4.635500e+001 1.120000e+001
      vertex   2.500000e+000 -4.750000e+001 1.000000e+001
    endloop
  endfacet
  facet normal 1.000000e+000 -1.939254e-015 0.000000e+000
    outer loop
      vertex   2.500000e+000 -4.750000e+001 1.000000e+001
      vertex   2.500000e+000 -4.635500e+001 1.120000e+001
      vertex   2.500000e+000 -4.750000e+001 1.250000e+001
    endloop
  endfacet
  facet normal 0.000000e+000 -0.000000e+000 1.000000e+000
    outer loop
      vertex   -2.500000e+000 -4.750000e+001 1.250000e+001
      vertex   2.500000e+000 -4.750000e+001 1.250000e+001
      vertex   -2.500000e+000 -4.600000e+001 1.250000e+001
    endloop
  endfacet
  facet normal -0.000000e+000 0.000000e+000 1.000000e+000
    outer loop
      vertex   -2.500000e+000 -4.600000e+001 1.250000e+001
      vertex   2.500000e+000 -4.750000e+001 1.250000e+001
      vertex   2.500000e+000 -4.600000e+001 1.250000e+001
    endloop
  endfacet
  facet normal 0.000000e+000 -0.000000e+000 1.000000e+000
    outer loop
      vertex   2.500000e+000 -4.750000e+001 1.000000e+001
      vertex   1.450000e+001 -4.750000e+001 1.000000e+001
      vertex   2.500000e+000 -4.635500e+001 1.000000e+001
    endloop
  endfacet
  facet normal -0.000000e+000 0.000000e+000 1.000000e+000
    outer loop
      vertex   2.500000e+000 -4.635500e+001 1.000000e+001
      vertex   1.450000e+001 -4.750000e+001 1.000000e+001
      vertex   1.450000e+001 -4.350000e+001 1.000000e+001
    endloop
  endfacet
  facet normal -0.000000e+000 0.000000e+000 1.000000e+000
    outer loop
      vertex   -1.450000e+001 -4.350000e+001 1.000000e+001
      vertex   2.500000e+000 -4.635500e+001 1.000000e+001
      vertex   1.450000e+001 -4.350000e+001 1.000000e+001
    endloop
  endfacet
  facet normal -0.000000e+000 0.000000e+000 1.000000e+000
    outer loop
      vertex   -1.450000e+001 -4.350000e+001 1.000000e+001
      vertex   -2.500000e+000 -4.635500e+001 1.000000e+001
      vertex   2.500000e+000 -4.635500e+001 1.000000e+001
    endloop
  endfacet
  facet normal -0.000000e+000 0.000000e+000 1.000000e+000
    outer loop
      vertex   -1.450000e+001 -4.350000e+001 1.000000e+001
      vertex   -1.450000e+001 -4.750000e+001 1.000000e+001
      vertex   -2.500000e+000 -4.635500e+001 1.000000e+001
    endloop
  endfacet
  facet normal 0.000000e+000 0.000000e+000 1.000000e+000
    outer loop
      vertex   -2.500000e+000 -4.635500e+001 1.000000e+001
      vertex   -1.450000e+001 -4.750000e+001 1.000000e+001
      vertex   -2.500000e+000 -4.750000e+001 1.000000e+001
    endloop
  endfacet
  facet normal -4.900295e-016 1.000000e+000 0.000000e+000
    outer loop
      vertex   -1.450000e+001 -4.350000e+001 1.000000e+000
      vertex   -1.450000e+001 -4.350000e+001 1.000000e+001
      vertex   1.450000e+001 -4.350000e+001 1.000000e+000
    endloop
  endfacet
  facet normal -4.900295e-016 1.000000e+000 0.000000e+000
    outer loop
      vertex   1.450000e+001 -4.350000e+001 1.000000e+000
      vertex   -1.450000e+001 -4.350000e+001 1.000000e+001
      vertex   1.450000e+001 -4.350000e+001 1.000000e+001
    endloop
  endfacet
  facet normal 1.000000e+000 0.000000e+000 -0.000000e+000
    outer loop
      vertex   1.450000e+001 -4.350000e+001 1.000000e+000
      vertex   1.450000e+001 -4.350000e+001 1.000000e+001
      vertex   1.450000e+001 -4.750000e+001 1.000000e+000
    endloop
  endfacet
  facet normal 1.000000e+000 0.000000e+000 -0.000000e+000
    outer loop
      vertex   1.450000e+001 -4.750000e+001 1.000000e+000
      vertex   1.450000e+001 -4.350000e+001 1.000000e+001
      vertex   1.450000e+001 -4.750000e+001 1.000000e+001
    endloop
  endfacet
  facet normal -0.000000e+000 -1.000000e+000 0.000000e+000
    outer loop
      vertex   8.000000e+000 -2.750000e+001 1.000000e+000
      vertex   8.000000e+000 -2.750000e+001 5.000000e+000
      vertex   -8.000000e+000 -2.750000e+001 1.000000e+000
    endloop
  endfacet
  facet normal 0.000000e+000 -1.000000e+000 0.000000e+000
    outer loop
      vertex   -8.000000e+000 -2.750000e+001 1.000000e+000
      vertex   8.000000e+000 -2.750000e+001 5.000000e+000
      vertex   -8.000000e+000 -2.750000e+001 5.000000e+000
    endloop
  endfacet
  facet normal 1.000000e+000 0.000000e+000 -0.000000e+000
    outer loop
      vertex   8.000000e+000 -2.650000e+001 1.000000e+000
      vertex   8.000000e+000 -2.650000e+001 5.000000e+000
      vertex   8.000000e+000 -2.750000e+001 1.000000e+000
    endloop
  endfacet
  facet normal 1.000000e+000 0.000000e+000 -0.000000e+000
    outer loop
      vertex   8.000000e+000 -2.750000e+001 1.000000e+000
      vertex   8.000000e+000 -2.650000e+001 5.000000e+000
      vertex   8.000000e+000 -2.750000e+001 5.000000e+000
    endloop
  endfacet
  facet normal 0.000000e+000 0.000000e+000 1.000000e+000
    outer loop
      vertex   8.000000e+000 -2.650000e+001 5.000000e+000
      vertex   -8.000000e+000 -2.650000e+001 5.000000e+000
      vertex   8.000000e+000 -2.750000e+001 5.000000e+000
    endloop
  endfacet
  facet normal 0.000000e+000 0.000000e+000 1.000000e+000
    outer loop
      vertex   8.000000e+000 -2.750000e+001 5.000000e+000
      vertex   -8.000000e+000 -2.650000e+001 5.000000e+000
      vertex   -8.000000e+000 -2.750000e+001 5.000000e+000
    endloop
  endfacet
  facet normal -0.000000e+000 1.000000e+000 0.000000e+000
    outer loop
      vertex   -8.000000e+000 -2.650000e+001 1.000000e+000
      vertex   -8.000000e+000 -2.650000e+001 5.000000e+000
      vertex   8.000000e+000 -2.650000e+001 1.000000e+000
    endloop
  endfacet
  facet normal 0.000000e+000 1.000000e+000 -0.000000e+000
    outer loop
      vertex   8.000000e+000 -2.650000e+001 1.000000e+000
      vertex   -8.000000e+000 -2.650000e+001 5.000000e+000
      vertex   8.000000e+000 -2.650000e+001 5.000000e+000
    endloop
  endfacet
  facet normal -1.000000e+000 0.000000e+000 0.000000e+000
    outer loop
      vertex   -8.000000e+000 -2.750000e+001 1.000000e+000
      vertex   -8.000000e+000 -2.750000e+001 5.000000e+000
      vertex   -8.000000e+000 -2.650000e+001 1.000000e+000
    endloop
  endfacet
  facet normal -1.000000e+000 0.000000e+000 0.000000e+000
    outer loop
      vertex   -8.000000e+000 -2.650000e+001 1.000000e+000
      vertex   -8.000000e+000 -2.750000e+001 5.000000e+000
      vertex   -8.000000e+000 -2.650000e+001 5.000000e+000
    endloop
  endfacet
  facet normal -1.000000e+000 0.000000e+000 0.000000e+000
    outer loop
      vertex   -1.800000e+001 -1.750000e+001 1.000000e+000
      vertex   -1.800000e+001 -1.750000e+001 5.000000e+000
      vertex   -1.800000e+001 1.750000e+001 1.000000e+000
    endloop
  endfacet
  facet normal -1.000000e+000 0.000000e+000 0.000000e+000
    outer loop
      vertex   -1.800000e+001 1.750000e+001 1.000000e+000
      vertex   -1.800000e+001 -1.750000e+001 5.000000e+000
      vertex   -1.800000e+001 1.750000e+001 5.000000e+000
    endloop
  endfacet
  facet normal -0.000000e+000 -1.000000e+000 0.000000e+000
    outer loop
      vertex   -1.700000e+001 -1.750000e+001 1.000000e+000
      vertex   -1.700000e+001 -1.750000e+001 5.000000e+000
      vertex   -1.800000e+001 -1.750000e+001 1.000000e+000
    endloop
  endfacet
  facet normal 0.000000e+000 -1.000000e+000 0.000000e+000
    outer loop
      vertex   -1.800000e+001 -1.750000e+001 1.000000e+000
      vertex   -1.700000e+001 -1.750000e+001 5.000000e+000
      vertex   -1.800000e+001 -1.750000e+001 5.000000e+000
    endloop
  endfacet
  facet normal 1.000000e+000 0.000000e+000 -0.000000e+000
    outer loop
      vertex   -1.700000e+001 1.750000e+001 1.000000e+000
      vertex   -1.700000e+001 1.750000e+001 5.000000e+000
      vertex   -1.700000e+001 -1.750000e+001 1.000000e+000
    endloop
  endfacet
  facet normal 1.000000e+000 0.000000e+000 -0.000000e+000
    outer loop
      vertex   -1.700000e+001 -1.750000e+001 1.000000e+000
      vertex   -1.700000e+001 1.750000e+001 5.000000e+000
      vertex   -1.700000e+001 -1.750000e+001 5.000000e+000
    endloop
  endfacet
  facet normal -0.000000e+000 1.000000e+000 0.000000e+000
    outer loop
      vertex   -1.800000e+001 1.750000e+001 1.000000e+000
      vertex   -1.800000e+001 1.750000e+001 5.000000e+000
      vertex   -1.700000e+001 1.750000e+001 1.000000e+000
    endloop
  endfacet
  facet normal 0.000000e+000 1.000000e+000 -0.000000e+000
    outer loop
      vertex   -1.700000e+001 1.750000e+001 1.000000e+000
      vertex   -1.800000e+001 1.750000e+001 5.000000e+000
      vertex   -1.700000e+001 1.750000e+001 5.000000e+000
    endloop
  endfacet
  facet normal 0.000000e+000 -0.000000e+000 1.000000e+000
    outer loop
      vertex   -1.700000e+001 -1.750000e+001 5.000000e+000
      vertex   -1.700000e+001 1.750000e+001 5.000000e+000
      vertex   -1.800000e+001 -1.750000e+001 5.000000e+000
    endloop
  endfacet
  facet normal 0.000000e+000 -0.000000e+000 1.000000e+000
    outer loop
      vertex   -1.800000e+001 -1.750000e+001 5.000000e+000
      vertex   -1.700000e+001 1.750000e+001 5.000000e+000
      vertex   -1.800000e+001 1.750000e+001 5.000000e+000
    endloop
  endfacet
  facet normal -0.000000e+000 -1.000000e+000 0.000000e+000
    outer loop
      vertex   3.150000e+001 -1.450000e+001 1.000000e+000
      vertex   3.150000e+001 -1.450000e+001 1.000000e+001
      vertex   2.750000e+001 -1.450000e+001 1.000000e+000
    endloop
  endfacet
  facet normal 0.000000e+000 -1.000000e+000 0.000000e+000
    outer loop
      vertex   2.750000e+001 -1.450000e+001 1.000000e+000
      vertex   3.150000e+001 -1.450000e+001 1.000000e+001
      vertex   2.750000e+001 -1.450000e+001 1.000000e+001
    endloop
  endfacet
  facet normal 0.000000e+000 -1.000000e+000 0.000000e+000
    outer loop
      vertex   3.048000e+001 -2.500000e+000 1.000000e+001
      vertex   3.150000e+001 -2.500000e+000 1.000000e+001
      vertex   3.048000e+001 -2.500000e+000 1.120000e+001
    endloop
  endfacet
  facet normal 0.000000e+000 -1.000000e+000 0.000000e+000
    outer loop
      vertex   3.048000e+001 -2.500000e+000 1.120000e+001
      vertex   3.150000e+001 -2.500000e+000 1.000000e+001
      vertex   3.150000e+001 -2.500000e+000 1.250000e+001
    endloop
  endfacet
  facet normal 0.000000e+000 -1.000000e+000 0.000000e+000
    outer loop
      vertex   3.000000e+001 -2.500000e+000 1.250000e+001
      vertex   3.048000e+001 -2.500000e+000 1.120000e+001
      vertex   3.150000e+001 -2.500000e+000 1.250000e+001
    endloop
  endfacet
  facet normal 0.000000e+000 -1.000000e+000 -0.000000e+000
    outer loop
      vertex   3.000000e+001 -2.500000e+000 1.250000e+001
      vertex   2.900000e+001 -2.500000e+000 1.150000e+001
      vertex   3.048000e+001 -2.500000e+000 1.120000e+001
    endloop
  endfacet
  facet normal -0.000000e+000 -1.000000e+000 -0.000000e+000
    outer loop
      vertex   3.048000e+001 -2.500000e+000 1.120000e+001
      vertex   2.900000e+001 -2.500000e+000 1.150000e+001
      vertex   2.900000e+001 -2.500000e+000 1.120000e+001
    endloop
  endfacet
  facet normal -7.071068e-001 0.000000e+000 7.071068e-001
    outer loop
      vertex   2.900000e+001 -2.500000e+000 1.150000e+001
      vertex   3.000000e+001 -2.500000e+000 1.250000e+001
      vertex   2.900000e+001 2.500000e+000 1.150000e+001
    endloop
  endfacet
  facet normal -7.071068e-001 0.000000e+000 7.071068e-001
    outer loop
      vertex   2.900000e+001 2.500000e+000 1.150000e+001
      vertex   3.000000e+001 -2.500000e+000 1.250000e+001
      vertex   3.000000e+001 2.500000e+000 1.250000e+001
    endloop
  endfacet
  facet normal -1.000000e+000 -0.000000e+000 -0.000000e+000
    outer loop
      vertex   2.900000e+001 2.500000e+000 1.150000e+001
      vertex   2.900000e+001 2.500000e+000 1.120000e+001
      vertex   2.900000e+001 -2.500000e+000 1.150000e+001
    endloop
  endfacet
  facet normal -1.000000e+000 -0.000000e+000 -0.000000e+000
    outer loop
      vertex   2.900000e+001 -2.500000e+000 1.150000e+001
      vertex   2.900000e+001 2.500000e+000 1.120000e+001
      vertex   2.900000e+001 -2.500000e+000 1.120000e+001
    endloop
  endfacet
  facet normal 0.000000e+000 -0.000000e+000 -1.000000e+000
    outer loop
      vertex   2.900000e+001 2.500000e+000 1.120000e+001
      vertex   3.048000e+001 2.500000e+000 1.120000e+001
      vertex   2.900000e+001 -2.500000e+000 1.120000e+001
    endloop
  endfacet
  facet normal 0.000000e+000 0.000000e+000 -1.000000e+000
    outer loop
      vertex   2.900000e+001 -2.500000e+000 1.120000e+001
      vertex   3.048000e+001 2.500000e+000 1.120000e+001
      vertex   3.048000e+001 -2.500000e+000 1.120000e+001
    endloop
  endfacet
  facet normal -1.000000e+000 0.000000e+000 0.000000e+000
    outer loop
      vertex   3.048000e+001 2.500000e+000 1.000000e+001
      vertex   3.048000e+001 -2.500000e+000 1.000000e+001
      vertex   3.048000e+001 2.500000e+000 1.120000e+001
    endloop
  endfacet
  facet normal -1.000000e+000 -0.000000e+000 0.000000e+000
    outer loop
      vertex   3.048000e+001 2.500000e+000 1.120000e+001
      vertex   3.048000e+001 -2.500000e+000 1.000000e+001
      vertex   3.048000e+001 -2.500000e+000 1.120000e+001
    endloop
  endfacet
  facet normal -0.000000e+000 1.000000e+000 0.000000e+000
    outer loop
      vertex   3.000000e+001 2.500000e+000 1.250000e+001
      vertex   3.150000e+001 2.500000e+000 1.250000e+001
      vertex   3.048000e+001 2.500000e+000 1.120000e+001
    endloop
  endfacet
  facet normal 0.000000e+000 1.000000e+000 0.000000e+000
    outer loop
      vertex   2.900000e+001 2.500000e+000 1.150000e+001
      vertex   3.048000e+001 2.500000e+000 1.120000e+001
      vertex   2.900000e+001 2.500000e+000 1.120000e+001
    endloop
  endfacet
  facet normal -0.000000e+000 1.000000e+000 0.000000e+000
    outer loop
      vertex   2.900000e+001 2.500000e+000 1.150000e+001
      vertex   3.000000e+001 2.500000e+000 1.250000e+001
      vertex   3.048000e+001 2.500000e+000 1.120000e+001
    endloop
  endfacet
  facet normal -0.000000e+000 1.000000e+000 0.000000e+000
    outer loop
      vertex   3.048000e+001 2.500000e+000 1.000000e+001
      vertex   3.048000e+001 2.500000e+000 1.120000e+001
      vertex   3.150000e+001 2.500000e+000 1.000000e+001
    endloop
  endfacet
  facet normal 0.000000e+000 1.000000e+000 -0.000000e+000
    outer loop
      vertex   3.150000e+001 2.500000e+000 1.000000e+001
      vertex   3.048000e+001 2.500000e+000 1.120000e+001
      vertex   3.150000e+001 2.500000e+000 1.250000e+001
    endloop
  endfacet
  facet normal 0.000000e+000 0.000000e+000 1.000000e+000
    outer loop
      vertex   3.150000e+001 2.500000e+000 1.250000e+001
      vertex   3.000000e+001 2.500000e+000 1.250000e+001
      vertex   3.150000e+001 -2.500000e+000 1.250000e+001
    endloop
  endfacet
  facet normal 0.000000e+000 0.000000e+000 1.000000e+000
    outer loop
      vertex   3.150000e+001 -2.500000e+000 1.250000e+001
      vertex   3.000000e+001 2.500000e+000 1.250000e+001
      vertex   3.000000e+001 -2.500000e+000 1.250000e+001
    endloop
  endfacet
  facet normal 0.000000e+000 -0.000000e+000 1.000000e+000
    outer loop
      vertex   3.150000e+001 2.500000e+000 1.000000e+001
      vertex   3.150000e+001 1.450000e+001 1.000000e+001
      vertex   3.048000e+001 2.500000e+000 1.000000e+001
    endloop
  endfacet
  facet normal 0.000000e+000 -0.000000e+000 1.000000e+000
    outer loop
      vertex   3.048000e+001 2.500000e+000 1.000000e+001
      vertex   3.150000e+001 1.450000e+001 1.000000e+001
      vertex   2.750000e+001 1.450000e+001 1.000000e+001
    endloop
  endfacet
  facet normal 0.000000e+000 -0.000000e+000 1.000000e+000
    outer loop
      vertex   2.750000e+001 -1.450000e+001 1.000000e+001
      vertex   3.048000e+001 2.500000e+000 1.000000e+001
      vertex   2.750000e+001 1.450000e+001 1.000000e+001
    endloop
  endfacet
  facet normal 0.000000e+000 0.000000e+000 1.000000e+000
    outer loop
      vertex   2.750000e+001 -1.450000e+001 1.000000e+001
      vertex   3.048000e+001 -2.500000e+000 1.000000e+001
      vertex   3.048000e+001 2.500000e+000 1.000000e+001
    endloop
  endfacet
  facet normal 0.000000e+000 -0.000000e+000 1.000000e+000
    outer loop
      vertex   2.750000e+001 -1.450000e+001 1.000000e+001
      vertex   3.150000e+001 -1.450000e+001 1.000000e+001
      vertex   3.048000e+001 -2.500000e+000 1.000000e+001
    endloop
  endfacet
  facet normal -0.000000e+000 -0.000000e+000 1.000000e+000
    outer loop
      vertex   3.048000e+001 -2.500000e+000 1.000000e+001
      vertex   3.150000e+001 -1.450000e+001 1.000000e+001
      vertex   3.150000e+001 -2.500000e+000 1.000000e+001
    endloop
  endfacet
  facet normal -1.000000e+000 0.000000e+000 0.000000e+000
    outer loop
      vertex   2.750000e+001 -1.450000e+001 1.000000e+000
      vertex   2.750000e+001 -1.450000e+001 1.000000e+001
      vertex   2.750000e+001 1.450000e+001 1.000000e+000
    endloop
  endfacet
  facet normal -1.000000e+000 0.000000e+000 0.000000e+000
    outer loop
      vertex   2.750000e+001 1.450000e+001 1.000000e+000
      vertex   2.750000e+001 -1.450000e+001 1.000000e+001
      vertex   2.750000e+001 1.450000e+001 1.000000e+001
    endloop
  endfacet
  facet normal -0.000000e+000 1.000000e+000 0.000000e+000
    outer loop
      vertex   2.750000e+001 1.450000e+001 1.000000e+000
      vertex   2.750000e+001 1.450000e+001 1.000000e+001
      vertex   3.150000e+001 1.450000e+001 1.000000e+000
    endloop
  endfacet
  facet normal 0.000000e+000 1.000000e+000 -0.000000e+000
    outer loop
      vertex   3.150000e+001 1.450000e+001 1.000000e+000
      vertex   2.750000e+001 1.450000e+001 1.000000e+001
      vertex   3.150000e+001 1.450000e+001 1.000000e+001
    endloop
  endfacet
  facet normal -0.000000e+000 1.000000e+000 0.000000e+000
    outer loop
      vertex   -3.150000e+001 1.450000e+001 1.000000e+000
      vertex   -3.150000e+001 1.450000e+001 1.000000e+001
      vertex   -2.750000e+001 1.450000e+001 1.000000e+000
    endloop
  endfacet
  facet normal 0.000000e+000 1.000000e+000 -0.000000e+000
    outer loop
      vertex   -2.750000e+001 1.450000e+001 1.000000e+000
      vertex   -3.150000e+001 1.450000e+001 1.000000e+001
      vertex   -2.750000e+001 1.450000e+001 1.000000e+001
    endloop
  endfacet
  facet normal 0.000000e+000 1.000000e+000 -0.000000e+000
    outer loop
      vertex   -3.048000e+001 2.500000e+000 1.000000e+001
      vertex   -3.150000e+001 2.500000e+000 1.000000e+001
      vertex   -3.048000e+001 2.500000e+000 1.120000e+001
    endloop
  endfacet
  facet normal 0.000000e+000 1.000000e+000 -0.000000e+000
    outer loop
      vertex   -3.048000e+001 2.500000e+000 1.120000e+001
      vertex   -3.150000e+001 2.500000e+000 1.000000e+001
      vertex   -3.150000e+001 2.500000e+000 1.250000e+001
    endloop
  endfacet
  facet normal 0.000000e+000 1.000000e+000 0.000000e+000
    outer loop
      vertex   -3.000000e+001 2.500000e+000 1.250000e+001
      vertex   -3.048000e+001 2.500000e+000 1.120000e+001
      vertex   -3.150000e+001 2.500000e+000 1.250000e+001
    endloop
  endfacet
  facet normal 0.000000e+000 1.000000e+000 0.000000e+000
    outer loop
      vertex   -3.000000e+001 2.500000e+000 1.250000e+001
      vertex   -2.900000e+001 2.500000e+000 1.150000e+001
      vertex   -3.048000e+001 2.500000e+000 1.120000e+001
    endloop
  endfacet
  facet normal -0.000000e+000 1.000000e+000 0.000000e+000
    outer loop
      vertex   -3.048000e+001 2.500000e+000 1.120000e+001
      vertex   -2.900000e+001 2.500000e+000 1.150000e+001
      vertex   -2.900000e+001 2.500000e+000 1.120000e+001
    endloop
  endfacet
  facet normal 7.071068e-001 0.000000e+000 7.071068e-001
    outer loop
      vertex   -2.900000e+001 2.500000e+000 1.150000e+001
      vertex   -3.000000e+001 2.500000e+000 1.250000e+001
      vertex   -2.900000e+001 -2.500000e+000 1.150000e+001
    endloop
  endfacet
  facet normal 7.071068e-001 0.000000e+000 7.071068e-001
    outer loop
      vertex   -2.900000e+001 -2.500000e+000 1.150000e+001
      vertex   -3.000000e+001 2.500000e+000 1.250000e+001
      vertex   -3.000000e+001 -2.500000e+000 1.250000e+001
    endloop
  endfacet
  facet normal 1.000000e+000 -0.000000e+000 0.000000e+000
    outer loop
      vertex   -2.900000e+001 -2.500000e+000 1.150000e+001
      vertex   -2.900000e+001 -2.500000e+000 1.120000e+001
      vertex   -2.900000e+001 2.500000e+000 1.150000e+001
    endloop
  endfacet
  facet normal 1.000000e+000 -0.000000e+000 0.000000e+000
    outer loop
      vertex   -2.900000e+001 2.500000e+000 1.150000e+001
      vertex   -2.900000e+001 -2.500000e+000 1.120000e+001
      vertex   -2.900000e+001 2.500000e+000 1.120000e+001
    endloop
  endfacet
  facet normal 0.000000e+000 0.000000e+000 -1.000000e+000
    outer loop
      vertex   -2.900000e+001 -2.500000e+000 1.120000e+001
      vertex   -3.048000e+001 -2.500000e+000 1.120000e+001
      vertex   -2.900000e+001 2.500000e+000 1.120000e+001
    endloop
  endfacet
  facet normal -0.000000e+000 0.000000e+000 -1.000000e+000
    outer loop
      vertex   -2.900000e+001 2.500000e+000 1.120000e+001
      vertex   -3.048000e+001 -2.500000e+000 1.120000e+001
      vertex   -3.048000e+001 2.500000e+000 1.120000e+001
    endloop
  endfacet
  facet normal 1.000000e+000 0.000000e+000 -0.000000e+000
    outer loop
      vertex   -3.048000e+001 -2.500000e+000 1.000000e+001
      vertex   -3.048000e+001 2.500000e+000 1.000000e+001
      vertex   -3.048000e+001 -2.500000e+000 1.120000e+001
    endloop
  endfacet
  facet normal 1.000000e+000 -0.000000e+000 0.000000e+000
    outer loop
      vertex   -3.048000e+001 -2.500000e+000 1.120000e+001
      vertex   -3.048000e+001 2.500000e+000 1.000000e+001
      vertex   -3.048000e+001 2.500000e+000 1.120000e+001
    endloop
  endfacet
  facet normal -0.000000e+000 -1.000000e+000 -0.000000e+000
    outer loop
      vertex   -3.000000e+001 -2.500000e+000 1.250000e+001
      vertex   -3.150000e+001 -2.500000e+000 1.250000e+001
      vertex   -3.048000e+001 -2.500000e+000 1.120000e+001
    endloop
  endfacet
  facet normal 0.000000e+000 -1.000000e+000 -0.000000e+000
    outer loop
      vertex   -2.900000e+001 -2.500000e+000 1.150000e+001
      vertex   -3.048000e+001 -2.500000e+000 1.120000e+001
      vertex   -2.900000e+001 -2.500000e+000 1.120000e+001
    endloop
  endfacet
  facet normal -0.000000e+000 -1.000000e+000 0.000000e+000
    outer loop
      vertex   -2.900000e+001 -2.500000e+000 1.150000e+001
      vertex   -3.000000e+001 -2.500000e+000 1.250000e+001
      vertex   -3.048000e+001 -2.500000e+000 1.120000e+001
    endloop
  endfacet
  facet normal -0.000000e+000 -1.000000e+000 0.000000e+000
    outer loop
      vertex   -3.048000e+001 -2.500000e+000 1.000000e+001
      vertex   -3.048000e+001 -2.500000e+000 1.120000e+001
      vertex   -3.150000e+001 -2.500000e+000 1.000000e+001
    endloop
  endfacet
  facet normal 0.000000e+000 -1.000000e+000 0.000000e+000
    outer loop
      vertex   -3.150000e+001 -2.500000e+000 1.000000e+001
      vertex   -3.048000e+001 -2.500000e+000 1.120000e+001
      vertex   -3.150000e+001 -2.500000e+000 1.250000e+001
    endloop
  endfacet
  facet normal 0.000000e+000 -0.000000e+000 1.000000e+000
    outer loop
      vertex   -3.150000e+001 -2.500000e+000 1.250000e+001
      vertex   -3.000000e+001 -2.500000e+000 1.250000e+001
      vertex   -3.150000e+001 2.500000e+000 1.250000e+001
    endloop
  endfacet
  facet normal -0.000000e+000 0.000000e+000 1.000000e+000
    outer loop
      vertex   -3.150000e+001 2.500000e+000 1.250000e+001
      vertex   -3.000000e+001 -2.500000e+000 1.250000e+001
      vertex   -3.000000e+001 2.500000e+000 1.250000e+001
    endloop
  endfacet
  facet normal -0.000000e+000 0.000000e+000 1.000000e+000
    outer loop
      vertex   -3.150000e+001 -2.500000e+000 1.000000e+001
      vertex   -3.150000e+001 -1.450000e+001 1.000000e+001
      vertex   -3.048000e+001 -2.500000e+000 1.000000e+001
    endloop
  endfacet
  facet normal -0.000000e+000 0.000000e+000 1.000000e+000
    outer loop
      vertex   -3.048000e+001 -2.500000e+000 1.000000e+001
      vertex   -3.150000e+001 -1.450000e+001 1.000000e+001
      vertex   -2.750000e+001 -1.450000e+001 1.000000e+001
    endloop
  endfacet
  facet normal -0.000000e+000 0.000000e+000 1.000000e+000
    outer loop
      vertex   -3.048000e+001 2.500000e+000 1.000000e+001
      vertex   -2.750000e+001 -1.450000e+001 1.000000e+001
      vertex   -2.750000e+001 1.450000e+001 1.000000e+001
    endloop
  endfacet
  facet normal -0.000000e+000 0.000000e+000 1.000000e+000
    outer loop
      vertex   -3.150000e+001 1.450000e+001 1.000000e+001
      vertex   -3.048000e+001 2.500000e+000 1.000000e+001
      vertex   -2.750000e+001 1.450000e+001 1.000000e+001
    endloop
  endfacet
  facet normal -0.000000e+000 0.000000e+000 1.000000e+000
    outer loop
      vertex   -3.150000e+001 1.450000e+001 1.000000e+001
      vertex   -3.150000e+001 2.500000e+000 1.000000e+001
      vertex   -3.048000e+001 2.500000e+000 1.000000e+001
    endloop
  endfacet
  facet normal -0.000000e+000 -0.000000e+000 1.000000e+000
    outer loop
      vertex   -3.048000e+001 -2.500000e+000 1.000000e+001
      vertex   -2.750000e+001 -1.450000e+001 1.000000e+001
      vertex   -3.048000e+001 2.500000e+000 1.000000e+001
    endloop
  endfacet
  facet normal -0.000000e+000 -1.000000e+000 0.000000e+000
    outer loop
      vertex   -2.750000e+001 -1.450000e+001 1.000000e+000
      vertex   -2.750000e+001 -1.450000e+001 1.000000e+001
      vertex   -3.150000e+001 -1.450000e+001 1.000000e+000
    endloop
  endfacet
  facet normal 0.000000e+000 -1.000000e+000 0.000000e+000
    outer loop
      vertex   -3.150000e+001 -1.450000e+001 1.000000e+000
      vertex   -2.750000e+001 -1.450000e+001 1.000000e+001
      vertex   -3.150000e+001 -1.450000e+001 1.000000e+001
    endloop
  endfacet
  facet normal 1.000000e+000 0.000000e+000 -0.000000e+000
    outer loop
      vertex   -2.750000e+001 1.450000e+001 1.000000e+000
      vertex   -2.750000e+001 1.450000e+001 1.000000e+001
      vertex   -2.750000e+001 -1.450000e+001 1.000000e+000
    endloop
  endfacet
  facet normal 1.000000e+000 0.000000e+000 -0.000000e+000
    outer loop
      vertex   -2.750000e+001 -1.450000e+001 1.000000e+000
      vertex   -2.750000e+001 1.450000e+001 1.000000e+001
      vertex   -2.750000e+001 -1.450000e+001 1.000000e+001
    endloop
  endfacet
  facet normal 0.000000e+000 -1.000000e+000 0.000000e+000
    outer loop
      vertex   -3.150000e+001 -4.750000e+001 1.000000e+000
      vertex   -3.150000e+001 -4.750000e+001 0.000000e+000
      vertex   -1.450000e+001 -4.750000e+001 1.000000e+000
    endloop
  endfacet
  facet normal 0.000000e+000 -1.000000e+000 -0.000000e+000
    outer loop
      vertex   -1.450000e+001 -4.750000e+001 1.000000e+000
      vertex   -3.150000e+001 -4.750000e+001 0.000000e+000
      vertex   0.000000e+000 -4.750000e+001 0.000000e+000
    endloop
  endfacet
  facet normal 0.000000e+000 -1.000000e+000 -7.105427e-016
    outer loop
      vertex   -2.500000e+000 -4.750000e+001 1.000000e+001
      vertex   0.000000e+000 -4.750000e+001 0.000000e+000
      vertex   2.500000e+000 -4.750000e+001 1.000000e+001
    endloop
  endfacet
  facet normal 0.000000e+000 -1.000000e+000 0.000000e+000
    outer loop
      vertex   -2.500000e+000 -4.750000e+001 1.250000e+001
      vertex   2.500000e+000 -4.750000e+001 1.000000e+001
      vertex   2.500000e+000 -4.750000e+001 1.250000e+001
    endloop
  endfacet
  facet normal 0.000000e+000 -1.000000e+000 0.000000e+000
    outer loop
      vertex   -2.500000e+000 -4.750000e+001 1.250000e+001
      vertex   -2.500000e+000 -4.750000e+001 1.000000e+001
      vertex   2.500000e+000 -4.750000e+001 1.000000e+001
    endloop
  endfacet
  facet normal 1.047116e-015 -1.000000e+000 -9.723216e-016
    outer loop
      vertex   2.500000e+000 -4.750000e+001 1.000000e+001
      vertex   0.000000e+000 -4.750000e+001 0.000000e+000
      vertex   1.450000e+001 -4.750000e+001 1.000000e+000
    endloop
  endfacet
  facet normal 1.184238e-015 -1.000000e+000 -7.894919e-016
    outer loop
      vertex   1.450000e+001 -4.750000e+001 1.000000e+001
      vertex   2.500000e+000 -4.750000e+001 1.000000e+001
      vertex   1.450000e+001 -4.750000e+001 1.000000e+000
    endloop
  endfacet
  facet normal -8.359326e-016 -1.000000e+000 0.000000e+000
    outer loop
      vertex   3.150000e+001 -4.750000e+001 1.000000e+000
      vertex   1.450000e+001 -4.750000e+001 1.000000e+000
      vertex   3.150000e+001 -4.750000e+001 0.000000e+000
    endloop
  endfacet
  facet normal 0.000000e+000 -1.000000e+000 1.421085e-014
    outer loop
      vertex   3.150000e+001 -4.750000e+001 0.000000e+000
      vertex   1.450000e+001 -4.750000e+001 1.000000e+000
      vertex   0.000000e+000 -4.750000e+001 0.000000e+000
    endloop
  endfacet
  facet normal -5.921189e-016 -1.000000e+000 -0.000000e+000
    outer loop
      vertex   -1.450000e+001 -4.750000e+001 1.000000e+001
      vertex   -1.450000e+001 -4.750000e+001 1.000000e+000
      vertex   -2.500000e+000 -4.750000e+001 1.000000e+001
    endloop
  endfacet
  facet normal -4.986265e-017 -1.000000e+000 -7.230084e-016
    outer loop
      vertex   -2.500000e+000 -4.750000e+001 1.000000e+001
      vertex   -1.450000e+001 -4.750000e+001 1.000000e+000
      vertex   0.000000e+000 -4.750000e+001 0.000000e+000
    endloop
  endfacet
  facet normal -1.000000e+000 -0.000000e+000 -0.000000e+000
    outer loop
      vertex   -3.150000e+001 4.750000e+001 1.000000e+000
      vertex   -3.150000e+001 4.750000e+001 0.000000e+000
      vertex   -3.150000e+001 1.450000e+001 1.000000e+000
    endloop
  endfacet
  facet normal -1.000000e+000 -0.000000e+000 -0.000000e+000
    outer loop
      vertex   -3.150000e+001 1.450000e+001 1.000000e+000
      vertex   -3.150000e+001 4.750000e+001 0.000000e+000
      vertex   -3.150000e+001 0.000000e+000 0.000000e+000
    endloop
  endfacet
  facet normal -1.000000e+000 -0.000000e+000 0.000000e+000
    outer loop
      vertex   -3.150000e+001 2.500000e+000 1.000000e+001
      vertex   -3.150000e+001 0.000000e+000 0.000000e+000
      vertex   -3.150000e+001 -2.500000e+000 1.000000e+001
    endloop
  endfacet
  facet normal -1.000000e+000 -0.000000e+000 0.000000e+000
    outer loop
      vertex   -3.150000e+001 2.500000e+000 1.250000e+001
      vertex   -3.150000e+001 -2.500000e+000 1.000000e+001
      vertex   -3.150000e+001 -2.500000e+000 1.250000e+001
    endloop
  endfacet
  facet normal -1.000000e+000 -0.000000e+000 -0.000000e+000
    outer loop
      vertex   -3.150000e+001 2.500000e+000 1.250000e+001
      vertex   -3.150000e+001 2.500000e+000 1.000000e+001
      vertex   -3.150000e+001 -2.500000e+000 1.000000e+001
    endloop
  endfacet
  facet normal -1.000000e+000 -0.000000e+000 -0.000000e+000
    outer loop
      vertex   -3.150000e+001 -2.500000e+000 1.000000e+001
      vertex   -3.150000e+001 0.000000e+000 0.000000e+000
      vertex   -3.150000e+001 -1.450000e+001 1.000000e+000
    endloop
  endfacet
  facet normal -1.000000e+000 0.000000e+000 -0.000000e+000
    outer loop
      vertex   -3.150000e+001 -1.450000e+001 1.000000e+001
      vertex   -3.150000e+001 -2.500000e+000 1.000000e+001
      vertex   -3.150000e+001 -1.450000e+001 1.000000e+000
    endloop
  endfacet
  facet normal -1.000000e+000 0.000000e+000 -0.000000e+000
    outer loop
      vertex   -3.150000e+001 -4.750000e+001 1.000000e+000
      vertex   -3.150000e+001 -1.450000e+001 1.000000e+000
      vertex   -3.150000e+001 -4.750000e+001 0.000000e+000
    endloop
  endfacet
  facet normal -1.000000e+000 0.000000e+000 0.000000e+000
    outer loop
      vertex   -3.150000e+001 -4.750000e+001 0.000000e+000
      vertex   -3.150000e+001 -1.450000e+001 1.000000e+000
      vertex   -3.150000e+001 0.000000e+000 0.000000e+000
    endloop
  endfacet
  facet normal -1.000000e+000 -0.000000e+000 -0.000000e+000
    outer loop
      vertex   -3.150000e+001 1.450000e+001 1.000000e+001
      vertex   -3.150000e+001 1.450000e+001 1.000000e+000
      vertex   -3.150000e+001 2.500000e+000 1.000000e+001
    endloop
  endfacet
  facet normal -1.000000e+000 0.000000e+000 -0.000000e+000
    outer loop
      vertex   -3.150000e+001 2.500000e+000 1.000000e+001
      vertex   -3.150000e+001 1.450000e+001 1.000000e+000
      vertex   -3.150000e+001 0.000000e+000 0.000000e+000
    endloop
  endfacet
  facet normal 8.359326e-016 1.000000e+000 0.000000e+000
    outer loop
      vertex   3.150000e+001 4.750000e+001 1.000000e+000
      vertex   3.150000e+001 4.750000e+001 0.000000e+000
      vertex   1.450000e+001 4.750000e+001 1.000000e+000
    endloop
  endfacet
  facet normal 0.000000e+000 1.000000e+000 -1.421085e-014
    outer loop
      vertex   1.450000e+001 4.750000e+001 1.000000e+000
      vertex   3.150000e+001 4.750000e+001 0.000000e+000
      vertex   0.000000e+000 4.750000e+001 0.000000e+000
    endloop
  endfacet
  facet normal 0.000000e+000 1.000000e+000 -7.105427e-016
    outer loop
      vertex   2.500000e+000 4.750000e+001 1.000000e+001
      vertex   0.000000e+000 4.750000e+001 0.000000e+000
      vertex   -2.500000e+000 4.750000e+001 1.000000e+001
    endloop
  endfacet
  facet normal 0.000000e+000 1.000000e+000 -0.000000e+000
    outer loop
      vertex   2.500000e+000 4.750000e+001 1.250000e+001
      vertex   -2.500000e+000 4.750000e+001 1.000000e+001
      vertex   -2.500000e+000 4.750000e+001 1.250000e+001
    endloop
  endfacet
  facet normal 0.000000e+000 1.000000e+000 0.000000e+000
    outer loop
      vertex   2.500000e+000 4.750000e+001 1.250000e+001
      vertex   2.500000e+000 4.750000e+001 1.000000e+001
      vertex   -2.500000e+000 4.750000e+001 1.000000e+001
    endloop
  endfacet
  facet normal -4.986265e-017 1.000000e+000 -7.230084e-016
    outer loop
      vertex   -2.500000e+000 4.750000e+001 1.000000e+001
      vertex   0.000000e+000 4.750000e+001 0.000000e+000
      vertex   -1.450000e+001 4.750000e+001 1.000000e+000
    endloop
  endfacet
  facet normal 0.000000e+000 1.000000e+000 -7.894919e-016
    outer loop
      vertex   -1.450000e+001 4.750000e+001 1.000000e+001
      vertex   -2.500000e+000 4.750000e+001 1.000000e+001
      vertex   -1.450000e+001 4.750000e+001 1.000000e+000
    endloop
  endfacet
  facet normal 0.000000e+000 1.000000e+000 0.000000e+000
    outer loop
      vertex   -3.150000e+001 4.750000e+001 1.000000e+000
      vertex   -1.450000e+001 4.750000e+001 1.000000e+000
      vertex   -3.150000e+001 4.750000e+001 0.000000e+000
    endloop
  endfacet
  facet normal -0.000000e+000 1.000000e+000 0.000000e+000
    outer loop
      vertex   -3.150000e+001 4.750000e+001 0.000000e+000
      vertex   -1.450000e+001 4.750000e+001 1.000000e+000
      vertex   0.000000e+000 4.750000e+001 0.000000e+000
    endloop
  endfacet
  facet normal -5.921189e-016 1.000000e+000 0.000000e+000
    outer loop
      vertex   1.450000e+001 4.750000e+001 1.000000e+001
      vertex   1.450000e+001 4.750000e+001 1.000000e+000
      vertex   2.500000e+000 4.750000e+001 1.000000e+001
    endloop
  endfacet
  facet normal -9.473903e-016 1.000000e+000 -4.736952e-016
    outer loop
      vertex   2.500000e+000 4.750000e+001 1.000000e+001
      vertex   1.450000e+001 4.750000e+001 1.000000e+000
      vertex   0.000000e+000 4.750000e+001 0.000000e+000
    endloop
  endfacet
  facet normal 1.000000e+000 -2.153160e-016 0.000000e+000
    outer loop
      vertex   3.150000e+001 -4.750000e+001 1.000000e+000
      vertex   3.150000e+001 -4.750000e+001 0.000000e+000
      vertex   3.150000e+001 -1.450000e+001 1.000000e+000
    endloop
  endfacet
  facet normal 1.000000e+000 0.000000e+000 -7.105427e-015
    outer loop
      vertex   3.150000e+001 -1.450000e+001 1.000000e+000
      vertex   3.150000e+001 -4.750000e+001 0.000000e+000
      vertex   3.150000e+001 0.000000e+000 0.000000e+000
    endloop
  endfacet
  facet normal 1.000000e+000 -0.000000e+000 0.000000e+000
    outer loop
      vertex   3.150000e+001 -2.500000e+000 1.000000e+001
      vertex   3.150000e+001 0.000000e+000 0.000000e+000
      vertex   3.150000e+001 2.500000e+000 1.000000e+001
    endloop
  endfacet
  facet normal 1.000000e+000 -0.000000e+000 0.000000e+000
    outer loop
      vertex   3.150000e+001 -2.500000e+000 1.250000e+001
      vertex   3.150000e+001 2.500000e+000 1.000000e+001
      vertex   3.150000e+001 2.500000e+000 1.250000e+001
    endloop
  endfacet
  facet normal 1.000000e+000 -0.000000e+000 0.000000e+000
    outer loop
      vertex   3.150000e+001 -2.500000e+000 1.250000e+001
      vertex   3.150000e+001 -2.500000e+000 1.000000e+001
      vertex   3.150000e+001 2.500000e+000 1.000000e+001
    endloop
  endfacet
  facet normal 1.000000e+000 -4.986265e-016 1.246566e-016
    outer loop
      vertex   3.150000e+001 2.500000e+000 1.000000e+001
      vertex   3.150000e+001 0.000000e+000 0.000000e+000
      vertex   3.150000e+001 1.450000e+001 1.000000e+000
    endloop
  endfacet
  facet normal 1.000000e+000 -5.921189e-016 0.000000e+000
    outer loop
      vertex   3.150000e+001 1.450000e+001 1.000000e+001
      vertex   3.150000e+001 2.500000e+000 1.000000e+001
      vertex   3.150000e+001 1.450000e+001 1.000000e+000
    endloop
  endfacet
  facet normal 1.000000e+000 2.153160e-016 0.000000e+000
    outer loop
      vertex   3.150000e+001 4.750000e+001 1.000000e+000
      vertex   3.150000e+001 1.450000e+001 1.000000e+000
      vertex   3.150000e+001 4.750000e+001 0.000000e+000
    endloop
  endfacet
  facet normal 1.000000e+000 0.000000e+000 -7.105427e-015
    outer loop
      vertex   3.150000e+001 4.750000e+001 0.000000e+000
      vertex   3.150000e+001 1.450000e+001 1.000000e+000
      vertex   3.150000e+001 0.000000e+000 0.000000e+000
    endloop
  endfacet
  facet normal 1.000000e+000 5.921189e-016 0.000000e+000
    outer loop
      vertex   3.150000e+001 -1.450000e+001 1.000000e+001
      vertex   3.150000e+001 -1.450000e+001 1.000000e+000
      vertex   3.150000e+001 -2.500000e+000 1.000000e+001
    endloop
  endfacet
  facet normal 1.000000e+000 4.986265e-016 1.246566e-016
    outer loop
      vertex   3.150000e+001 -2.500000e+000 1.000000e+001
      vertex   3.150000e+001 -1.450000e+001 1.000000e+000
      vertex   3.150000e+001 0.000000e+000 0.000000e+000
    endloop
  endfacet
endsolid
